<svg width="32" height="22" viewBox="0 0 32 22" fill="none" xmlns="http://www.w3.org/2000/svg">
<path d="M31.7874 7.48877L28.5974 1.10627C28.4799 0.871355 28.3173 0.661888 28.1188 0.489833C27.9203 0.317778 27.6899 0.186505 27.4407 0.10351C27.1915 0.0205161 26.9284 -0.0125737 26.6664 0.00613068C26.4043 0.0248351 26.1486 0.0949676 25.9137 0.212522L22.8049 1.76627L16.2562 0.0337725C16.0882 -0.0099554 15.9117 -0.0099554 15.7437 0.0337725L9.19495 1.76627L6.08619 0.212522C5.8513 0.0949676 5.59554 0.0248351 5.33354 0.00613068C5.07153 -0.0125737 4.80841 0.0205161 4.5592 0.10351C4.30998 0.186505 4.07956 0.317778 3.88108 0.489833C3.6826 0.661888 3.51996 0.871355 3.40245 1.10627L0.212445 7.48752C0.0948904 7.72242 0.0247582 7.97817 0.00605377 8.24018C-0.0126506 8.50218 0.0204391 8.7653 0.103433 9.01452C0.186428 9.26373 0.317701 9.49416 0.489756 9.69264C0.661811 9.89111 0.871278 10.0538 1.1062 10.1713L4.48119 11.86L11.4174 16.8138C11.5197 16.8864 11.6346 16.9394 11.7562 16.97L19.7562 18.97C19.9237 19.012 20.0993 19.0099 20.2658 18.9639C20.4323 18.9179 20.584 18.8296 20.7062 18.7075L25.7062 13.7075L27.5912 11.8225L30.8937 10.1713C31.3678 9.93393 31.7283 9.51805 31.8959 9.01504C32.0635 8.51202 32.0245 7.96304 31.7874 7.48877ZM24.9262 11.66L20.6249 8.21502C20.4323 8.06071 20.1893 7.98312 19.9428 7.9972C19.6964 8.01127 19.4638 8.11602 19.2899 8.29127C17.0637 10.5338 14.5824 10.25 12.9999 9.25002L18.4049 4.00002H22.3812L25.7824 10.8013L24.9262 11.66ZM19.6924 16.8925L12.4274 15.0763L6.27745 10.6838L9.77745 3.68377L15.9999 2.03502L17.2249 2.35877L11.5999 7.81877L11.5899 7.83002C11.3782 8.04176 11.2167 8.29835 11.1174 8.58085C11.0181 8.86334 10.9834 9.16454 11.0161 9.4622C11.0487 9.75987 11.1478 10.0464 11.3059 10.3007C11.4641 10.5549 11.6774 10.7704 11.9299 10.9313C14.4999 12.5725 17.6012 12.3063 20.0437 10.3063L23.4999 13.0825L19.6924 16.8925ZM16.4774 21.2425C16.4234 21.4587 16.2988 21.6506 16.1233 21.7878C15.9478 21.925 15.7315 21.9997 15.5087 22C15.4265 22.0001 15.3447 21.99 15.2649 21.97L10.0512 20.6663C9.92938 20.6362 9.81441 20.5832 9.71245 20.51L6.41869 18.1575C6.21617 17.9985 6.08279 17.7675 6.04633 17.5126C6.00986 17.2577 6.07312 16.9986 6.22294 16.7892C6.37275 16.5797 6.59757 16.4362 6.85058 16.3884C7.1036 16.3406 7.3653 16.3922 7.5812 16.5325L10.7199 18.775L15.7499 20.03C16.0072 20.0944 16.2283 20.2583 16.3648 20.4856C16.5012 20.713 16.5417 20.9853 16.4774 21.2425Z" fill="white"/>
</svg>
