<svg width="27" height="27" viewBox="0 0 27 27" fill="none" xmlns="http://www.w3.org/2000/svg">
<path d="M8.4375 18.5625H15.1875V17.4375H8.4375V18.5625ZM8.4375 14.0625H18.5625V12.9375H8.4375V14.0625ZM8.4375 9.5625H18.5625V8.4375H8.4375V9.5625ZM6.318 22.5C5.79975 22.5 5.36737 22.3267 5.02087 21.9802C4.67437 21.6338 4.50075 21.201 4.5 20.682V6.318C4.5 5.79975 4.67362 5.36737 5.02087 5.02087C5.36812 4.67437 5.8005 4.50075 6.318 4.5H20.6831C21.2006 4.5 21.633 4.67362 21.9802 5.02087C22.3275 5.36812 22.5007 5.8005 22.5 6.318V20.6831C22.5 21.2006 22.3267 21.633 21.9802 21.9802C21.6338 22.3275 21.201 22.5007 20.682 22.5H6.318ZM6.318 21.375H20.6831C20.8556 21.375 21.0142 21.303 21.159 21.159C21.3038 21.015 21.3757 20.856 21.375 20.682V6.318C21.375 6.14475 21.303 5.98575 21.159 5.841C21.015 5.69625 20.856 5.62425 20.682 5.625H6.318C6.14475 5.625 5.98575 5.697 5.841 5.841C5.69625 5.985 5.62425 6.144 5.625 6.318V20.6831C5.625 20.8556 5.697 21.0142 5.841 21.159C5.985 21.3038 6.14362 21.3757 6.31687 21.375" fill="#D25917"/>
</svg>
