<svg width="35" height="35" viewBox="0 0 35 35" fill="none" xmlns="http://www.w3.org/2000/svg">
<path d="M7.29163 20.4167C6.90485 20.4167 6.53392 20.5704 6.26043 20.8439C5.98694 21.1174 5.83329 21.4883 5.83329 21.8751V27.7084C5.83329 28.0952 5.98694 28.4661 6.26043 28.7396C6.53392 29.0131 6.90485 29.1667 7.29163 29.1667H27.7083C28.0951 29.1667 28.466 29.0131 28.7395 28.7396C29.013 28.4661 29.1666 28.0952 29.1666 27.7084V21.8751C29.1666 21.4883 29.013 21.1174 28.7395 20.8439C28.466 20.5704 28.0951 20.4167 27.7083 20.4167H7.29163ZM7.29163 17.5001C6.1313 17.5001 5.01851 17.0391 4.19803 16.2187C3.37756 15.3982 2.91663 14.2854 2.91663 13.1251L2.91663 7.29175C2.91663 6.13143 3.37756 5.01863 4.19803 4.19816C5.01851 3.37768 6.1313 2.91675 7.29163 2.91675L27.7083 2.91675C28.8686 2.91675 29.9814 3.37768 30.8019 4.19816C31.6224 5.01863 32.0833 6.13143 32.0833 7.29175V13.1251C32.0833 14.2854 31.6224 15.3982 30.8019 16.2187C29.9814 17.0391 28.8686 17.5001 27.7083 17.5001C28.8686 17.5001 29.9814 17.961 30.8019 18.7815C31.6224 19.602 32.0833 20.7148 32.0833 21.8751V27.7084C32.0833 28.8687 31.6224 29.9815 30.8019 30.802C29.9814 31.6225 28.8686 32.0834 27.7083 32.0834H7.29163C6.1313 32.0834 5.01851 31.6225 4.19803 30.802C3.37756 29.9815 2.91663 28.8687 2.91663 27.7084L2.91663 21.8751C2.91663 20.7148 3.37756 19.602 4.19803 18.7815C5.01851 17.961 6.1313 17.5001 7.29163 17.5001ZM7.29163 5.83341C6.90485 5.83341 6.53392 5.98706 6.26043 6.26055C5.98694 6.53404 5.83329 6.90497 5.83329 7.29175V13.1251C5.83329 13.5119 5.98694 13.8828 6.26043 14.1563C6.53392 14.4298 6.90485 14.5834 7.29163 14.5834H27.7083C28.0951 14.5834 28.466 14.4298 28.7395 14.1563C29.013 13.8828 29.1666 13.5119 29.1666 13.1251V7.29175C29.1666 6.90497 29.013 6.53404 28.7395 6.26055C28.466 5.98706 28.0951 5.83341 27.7083 5.83341H7.29163ZM10.2083 11.6667C9.82152 11.6667 9.45059 11.5131 9.1771 11.2396C8.9036 10.9661 8.74996 10.5952 8.74996 10.2084C8.74996 9.82164 8.9036 9.45071 9.1771 9.17722C9.45059 8.90373 9.82152 8.75008 10.2083 8.75008C10.5951 8.75008 10.966 8.90373 11.2395 9.17722C11.513 9.45071 11.6666 9.82164 11.6666 10.2084C11.6666 10.5952 11.513 10.9661 11.2395 11.2396C10.966 11.5131 10.5951 11.6667 10.2083 11.6667ZM14.5833 11.6667C14.1965 11.6667 13.8256 11.5131 13.5521 11.2396C13.2786 10.9661 13.125 10.5952 13.125 10.2084C13.125 9.82164 13.2786 9.45071 13.5521 9.17722C13.8256 8.90373 14.1965 8.75008 14.5833 8.75008C14.9701 8.75008 15.341 8.90373 15.6145 9.17722C15.888 9.45071 16.0416 9.82164 16.0416 10.2084C16.0416 10.5952 15.888 10.9661 15.6145 11.2396C15.341 11.5131 14.9701 11.6667 14.5833 11.6667ZM14.5833 26.2501C14.1965 26.2501 13.8256 26.0964 13.5521 25.8229C13.2786 25.5495 13.125 25.1785 13.125 24.7917C13.125 24.405 13.2786 24.034 13.5521 23.7605C13.8256 23.4871 14.1965 23.3334 14.5833 23.3334C14.9701 23.3334 15.341 23.4871 15.6145 23.7605C15.888 24.034 16.0416 24.405 16.0416 24.7917C16.0416 25.1785 15.888 25.5495 15.6145 25.8229C15.341 26.0964 14.9701 26.2501 14.5833 26.2501ZM10.2083 26.2501C9.82152 26.2501 9.45059 26.0964 9.1771 25.8229C8.9036 25.5495 8.74996 25.1785 8.74996 24.7917C8.74996 24.405 8.9036 24.034 9.1771 23.7605C9.45059 23.4871 9.82152 23.3334 10.2083 23.3334C10.5951 23.3334 10.966 23.4871 11.2395 23.7605C11.513 24.034 11.6666 24.405 11.6666 24.7917C11.6666 25.1785 11.513 25.5495 11.2395 25.8229C10.966 26.0964 10.5951 26.2501 10.2083 26.2501Z" fill="white"/>
</svg>
