<svg width="31" height="31" viewBox="0 0 31 31" fill="none" xmlns="http://www.w3.org/2000/svg">
<path d="M24.3341 0.916748V12.5834M30.1675 6.75008H18.5008M1.72996 6.75008C1.72996 4.50425 1.72996 3.38133 2.236 2.55591C2.51892 2.09362 2.90683 1.70571 3.36913 1.42279C4.19308 0.916748 5.31746 0.916748 7.56329 0.916748C9.80913 0.916748 10.932 0.916748 11.7575 1.42279C12.2198 1.70571 12.6077 2.09362 12.8906 2.55591C13.3966 3.37987 13.3966 4.50425 13.3966 6.75008C13.3966 8.99591 13.3966 10.1188 12.8906 10.9442C12.6077 11.4065 12.2198 11.7945 11.7575 12.0774C10.9335 12.5834 9.80913 12.5834 7.56329 12.5834C5.31746 12.5834 4.19454 12.5834 3.36913 12.0774C2.90718 11.7945 2.51885 11.4062 2.236 10.9442C1.72996 10.1203 1.72996 8.99591 1.72996 6.75008ZM3.59954 19.5572C5.12642 18.0303 5.88913 17.2676 6.79329 17.0488C7.29942 16.9272 7.82716 16.9272 8.33329 17.0488C9.23746 17.2676 10.0002 18.0303 11.527 19.5572C13.0539 21.084 13.8166 21.8467 14.0354 22.7509C14.1548 23.2573 14.1548 23.7845 14.0354 24.2909C13.8166 25.1951 13.0539 25.9592 11.527 27.4847C10.0002 29.0101 9.23746 29.7742 8.33329 29.993C7.82716 30.1146 7.29942 30.1146 6.79329 29.993C5.88913 29.7742 5.12642 29.0115 3.59954 27.4847C2.07267 25.9578 1.30996 25.1951 1.09121 24.2909C0.969597 23.7848 0.969597 23.257 1.09121 22.7509C1.30996 21.8467 2.07267 21.0826 3.59954 19.5572ZM18.5008 24.2501C18.5008 22.0042 18.5008 20.8813 19.0068 20.0559C19.2898 19.5936 19.6777 19.2057 20.14 18.9228C20.9639 18.4167 22.0883 18.4167 24.3341 18.4167C26.58 18.4167 27.7029 18.4167 28.5298 18.9228C28.9906 19.2057 29.3785 19.5936 29.6614 20.0559C30.1675 20.8799 30.1675 22.0042 30.1675 24.2501C30.1675 26.4959 30.1675 27.6188 29.6614 28.4457C29.3784 28.9066 28.9907 29.2943 28.5298 29.5774C27.7029 30.0834 26.58 30.0834 24.3341 30.0834C22.0883 30.0834 20.9654 30.0834 20.14 29.5774C19.6782 29.2949 19.2899 28.9071 19.0068 28.4457C18.5008 27.6188 18.5008 26.4959 18.5008 24.2501Z" stroke="white" stroke-width="1.5" stroke-linecap="round" stroke-linejoin="round"/>
</svg>
