<svg width="32" height="28" viewBox="0 0 32 28" fill="none" xmlns="http://www.w3.org/2000/svg">
<path d="M15.9998 0.399902C14.6472 0.399902 13.35 0.937222 12.3936 1.89366C11.4371 2.85009 10.8998 4.1473 10.8998 5.4999C10.8998 6.85251 11.4371 8.14971 12.3936 9.10615C13.35 10.0626 14.6472 10.5999 15.9998 10.5999C17.3524 10.5999 18.6496 10.0626 19.6061 9.10615C20.5625 8.14971 21.0998 6.85251 21.0998 5.4999C21.0998 4.1473 20.5625 2.85009 19.6061 1.89366C18.6496 0.937222 17.3524 0.399902 15.9998 0.399902ZM7.58991 13.9931C7.53211 14.2696 7.50321 14.5552 7.50321 14.8499V20.7999C7.5021 22.0341 7.77031 23.2537 8.28913 24.3735C8.80795 25.4934 9.56488 26.4865 10.5071 27.2837L10.2164 27.3687C9.35378 27.6001 8.45402 27.6593 7.56851 27.5429C6.683 27.4265 5.82909 27.1368 5.05555 26.6904C4.28202 26.2439 3.604 25.6495 3.06023 24.941C2.51647 24.2325 2.1176 23.4238 1.88641 22.5611L0.786508 18.4556C0.699877 18.1321 0.677812 17.7947 0.721573 17.4627C0.765334 17.1307 0.874064 16.8106 1.04155 16.5206C1.20905 16.2306 1.43202 15.9764 1.69773 15.7726C1.96345 15.5688 2.26672 15.4193 2.59021 15.3327L7.58991 13.9931ZM21.4993 27.2837C22.4415 26.4865 23.1985 25.4934 23.7173 24.3735C24.2361 23.2537 24.5043 22.0341 24.5032 20.7999V14.8499C24.5021 14.5552 24.4737 14.2696 24.4182 13.9931L29.4162 15.3327C30.0692 15.508 30.6259 15.9354 30.9638 16.5211C31.3017 17.1067 31.3932 17.8025 31.2182 18.4556L30.1183 22.5611C29.8805 23.4482 29.4654 24.278 28.8982 25.0003C28.3309 25.7226 27.6232 26.3225 26.8178 26.7638C26.0123 27.2052 25.1258 27.4788 24.2118 27.5681C23.2977 27.6575 22.375 27.5607 21.4993 27.2837ZM27.0498 3.7999C25.9226 3.7999 24.8416 4.24767 24.0446 5.0447C23.2476 5.84173 22.7998 6.92273 22.7998 8.0499C22.7998 9.17707 23.2476 10.2581 24.0446 11.0551C24.8416 11.8521 25.9226 12.2999 27.0498 12.2999C28.177 12.2999 29.258 11.8521 30.055 11.0551C30.852 10.2581 31.2998 9.17707 31.2998 8.0499C31.2998 6.92273 30.852 5.84173 30.055 5.0447C29.258 4.24767 28.177 3.7999 27.0498 3.7999ZM4.94981 3.7999C3.82264 3.7999 2.74163 4.24767 1.9446 5.0447C1.14757 5.84173 0.699808 6.92273 0.699808 8.0499C0.699808 9.17707 1.14757 10.2581 1.9446 11.0551C2.74163 11.8521 3.82264 12.2999 4.94981 12.2999C6.07698 12.2999 7.15798 11.8521 7.95501 11.0551C8.75204 10.2581 9.19981 9.17707 9.19981 8.0499C9.19981 6.92273 8.75204 5.84173 7.95501 5.0447C7.15798 4.24767 6.07698 3.7999 4.94981 3.7999ZM11.7498 12.2999C11.0735 12.2999 10.4249 12.5686 9.94668 13.0468C9.46847 13.525 9.19981 14.1736 9.19981 14.8499V20.7999C9.19981 22.6034 9.91623 24.333 11.1915 25.6082C12.4667 26.8835 14.1963 27.5999 15.9998 27.5999C17.8033 27.5999 19.5329 26.8835 20.8081 25.6082C22.0834 24.333 22.7998 22.6034 22.7998 20.7999V14.8499C22.7998 14.1736 22.5311 13.525 22.0529 13.0468C21.5747 12.5686 20.9261 12.2999 20.2498 12.2999H11.7498Z" fill="black"/>
</svg>
