<svg width="21" height="18" viewBox="0 0 21 18" fill="none" xmlns="http://www.w3.org/2000/svg">
<g id="Message 35">
<path id="Vector" d="M1.49946 3.17756C0.916748 4.35779 0.916748 6.04288 0.916748 9C0.916748 12.4373 0.916748 14.1559 1.83187 15.3607C2.12742 15.7498 2.48516 16.092 2.89194 16.3747C4.15151 17.25 5.94826 17.25 9.54175 17.25H11.4584C15.0519 17.25 16.8487 17.25 18.1082 16.3747C18.515 16.092 18.8727 15.7498 19.1683 15.3607C20.0834 14.1559 20.0834 12.4373 20.0834 9C20.0834 6.02198 20.0834 4.33403 19.4883 3.15261M1.49946 3.17756C1.59407 2.98593 1.70405 2.80761 1.83187 2.63932C2.12742 2.25022 2.48516 1.90804 2.89194 1.62534C4.15151 0.75 5.94826 0.75 9.54175 0.75H11.4584C15.0519 0.75 16.8487 0.75 18.1082 1.62534C18.515 1.90804 18.8727 2.25022 19.1683 2.63932C19.2906 2.80029 19.3965 2.97042 19.4883 3.15261M1.49946 3.17756L1.87508 3.5L3.72364 5.26819C6.91809 8.32374 8.51531 9.85152 10.5001 9.85152C12.4849 9.85152 14.0821 8.32374 17.2765 5.26819L19.1251 3.5L19.4883 3.15261" stroke="#D25917" stroke-width="1.5"/>
</g>
</svg>
