<svg width="35" height="35" viewBox="0 0 35 35" fill="none" xmlns="http://www.w3.org/2000/svg">
<path d="M17.5 18.2292C16.1463 18.2292 14.8481 18.767 13.8909 19.7242C12.9336 20.6814 12.3959 21.9797 12.3959 23.3334C12.3959 24.6871 12.9336 25.9854 13.8909 26.9426C14.8481 27.8998 16.1463 28.4376 17.5 28.4376C18.8537 28.4376 20.152 27.8998 21.1092 26.9426C22.0664 25.9854 22.6042 24.6871 22.6042 23.3334C22.6042 21.9797 22.0664 20.6814 21.1092 19.7242C20.152 18.767 18.8537 18.2292 17.5 18.2292ZM15.3125 23.3334C15.3125 22.7533 15.543 22.1969 15.9532 21.7866C16.3635 21.3764 16.9199 21.1459 17.5 21.1459C18.0802 21.1459 18.6366 21.3764 19.0468 21.7866C19.4571 22.1969 19.6875 22.7533 19.6875 23.3334C19.6875 23.9136 19.4571 24.47 19.0468 24.8802C18.6366 25.2904 18.0802 25.5209 17.5 25.5209C16.9199 25.5209 16.3635 25.2904 15.9532 24.8802C15.543 24.47 15.3125 23.9136 15.3125 23.3334Z" fill="white"/>
<path d="M25.5588 7.46073L20.9227 0.960938L3.87625 14.5789L2.93125 14.5686V14.5832H2.1875V32.0832H32.8125V14.5832H31.4096L28.6183 6.41802L25.5588 7.46073ZM28.3281 14.5832H13.704L24.5962 10.8703L26.8158 10.1601L28.3281 14.5832ZM22.6771 8.44365L11.4333 12.2761L20.3379 5.1624L22.6771 8.44365ZM5.10417 26.4964V20.1672C5.71984 19.9499 6.27907 19.5976 6.74086 19.136C7.20265 18.6745 7.55529 18.1154 7.77292 17.4999H27.2271C27.4445 18.1157 27.7971 18.675 28.2589 19.1368C28.7207 19.5986 29.28 19.9512 29.8958 20.1686V26.4978C29.28 26.7153 28.7207 27.0678 28.2589 27.5296C27.7971 27.9914 27.4445 28.5507 27.2271 29.1666H7.77583C7.55735 28.5507 7.20412 27.9913 6.7419 27.5294C6.27969 27.0674 5.72017 26.7145 5.10417 26.4964Z" fill="white"/>
</svg>
