<svg width="29" height="22" viewBox="0 0 29 22" fill="none" xmlns="http://www.w3.org/2000/svg">
<g clip-path="url(#clip0_877_953)">
<path d="M11.9 15.9525H18.1C18.5217 15.9525 18.8796 15.805 19.1737 15.51C19.4679 15.2158 19.615 14.8583 19.615 14.4375V10.7362C19.615 10.3154 19.4679 9.9575 19.1737 9.6625C18.8796 9.36833 18.5221 9.22125 18.1012 9.22125H17.74V6.96125C17.74 6.19458 17.4758 5.54625 16.9475 5.01625C16.4183 4.48625 15.7708 4.22125 15.005 4.22125C14.2392 4.22125 13.59 4.48625 13.0575 5.01625C12.525 5.54625 12.2592 6.19458 12.26 6.96125V7.53875H13.365V6.96125C13.365 6.51125 13.525 6.12625 13.845 5.80625C14.165 5.48625 14.55 5.32625 15 5.32625C15.45 5.32625 15.835 5.48625 16.155 5.80625C16.475 6.12625 16.635 6.51125 16.635 6.96125V9.22125H11.8988C11.4779 9.22125 11.1204 9.36833 10.8263 9.6625C10.5321 9.9575 10.385 10.3154 10.385 10.7362V14.4375C10.385 14.8583 10.5321 15.2158 10.8263 15.51C11.1213 15.8042 11.4788 15.9513 11.8988 15.9513M15.0037 22.25C13.4488 22.25 11.9862 21.955 10.6163 21.365C9.24708 20.7742 8.05583 19.9725 7.0425 18.96C6.02917 17.9475 5.22708 16.7575 4.63625 15.39C4.04542 14.0225 3.75 12.5604 3.75 11.0037C3.75 9.44708 4.04542 7.98458 4.63625 6.61625C5.22625 5.24708 6.02667 4.05583 7.0375 3.0425C8.04833 2.02917 9.23875 1.22708 10.6088 0.63625C11.9788 0.0454168 13.4412 -0.25 14.9963 -0.25C16.5512 -0.25 18.0138 0.0454168 19.3837 0.63625C20.7529 1.22625 21.9442 2.02708 22.9575 3.03875C23.9708 4.05042 24.7729 5.24083 25.3638 6.61C25.9546 7.97917 26.25 9.44125 26.25 10.9963C26.25 12.5512 25.955 14.0138 25.365 15.3837C24.775 16.7537 23.9733 17.945 22.96 18.9575C21.9467 19.97 20.7567 20.7721 19.39 21.3638C18.0233 21.9554 16.5613 22.2508 15.0037 22.25ZM15 21C17.7917 21 20.1562 20.0312 22.0938 18.0938C24.0312 16.1562 25 13.7917 25 11C25 8.20833 24.0312 5.84375 22.0938 3.90625C20.1562 1.96875 17.7917 1 15 1C12.2083 1 9.84375 1.96875 7.90625 3.90625C5.96875 5.84375 5 8.20833 5 11C5 13.7917 5.96875 16.1562 7.90625 18.0938C9.84375 20.0312 12.2083 21 15 21Z" fill="#D25917"/>
</g>
<defs>
<clipPath id="clip0_877_953">
<rect width="29" height="22" fill="white"/>
</clipPath>
</defs>
</svg>
