<svg width="91" height="17" viewBox="0 0 91 17" fill="none" xmlns="http://www.w3.org/2000/svg">
<path d="M10.04 16H5C3.4 16 2.27333 15.7267 1.62 15.18C0.98 14.62 0.66 13.64 0.66 12.24V1.76H10.04V4.24H3.44V7.58H8.06L7.86 10.06H3.44V12.04C3.44 12.6 3.56667 12.9867 3.82 13.2C4.07333 13.4133 4.53333 13.52 5.2 13.52H10.04V16ZM20.8694 16H19.1294L18.3294 14.62L15.5494 16.12C14.0027 16.12 12.9627 15.56 12.4294 14.44C12.1627 13.8933 11.976 13.3067 11.8694 12.68C11.776 12.04 11.7294 11.38 11.7294 10.7C11.7294 10.0067 11.736 9.5 11.7494 9.18C11.7627 8.84667 11.796 8.46667 11.8494 8.04C11.9027 7.6 11.976 7.23333 12.0694 6.94C12.176 6.64667 12.3227 6.34667 12.5094 6.04C12.696 5.72 12.9227 5.46667 13.1894 5.28C13.7894 4.86667 14.5694 4.66 15.5294 4.66H18.2694V0.959999H20.8694V16ZM18.2694 12.36V7H16.2894C15.556 7 15.0427 7.28 14.7494 7.84C14.4694 8.4 14.3294 9.24 14.3294 10.36C14.3294 11.4667 14.4627 12.2467 14.7294 12.7C15.0094 13.1533 15.5294 13.38 16.2894 13.38L18.2694 12.36ZM25.1003 0.219999C25.727 0.219999 26.1336 0.319999 26.3203 0.519999C26.507 0.706666 26.6003 1.11333 26.6003 1.74C26.6003 2.35333 26.5003 2.76 26.3003 2.96C26.1136 3.14667 25.707 3.24 25.0803 3.24C24.467 3.24 24.0603 3.14 23.8603 2.94C23.6736 2.74 23.5803 2.33333 23.5803 1.72C23.5803 1.10667 23.6736 0.706666 23.8603 0.519999C24.0603 0.319999 24.4736 0.219999 25.1003 0.219999ZM26.3803 16H23.7803V5H26.3803V16ZM34.1681 16H32.5481C31.5615 16 30.8081 15.7067 30.2881 15.12C29.7815 14.5333 29.5281 13.8333 29.5281 13.02V7.02H28.4281V5.04H29.5281V2.8H32.1281V5.04H33.9681V7.02H32.1281V12.86C32.1281 13.4867 32.4281 13.8 33.0281 13.8H34.1681V16ZM50.5478 16H45.5078C43.9078 16 42.7811 15.7267 42.1278 15.18C41.4878 14.62 41.1678 13.64 41.1678 12.24V1.76H50.5478V4.24H43.9478V7.58H48.5678L48.3678 10.06H43.9478V12.04C43.9478 12.6 44.0745 12.9867 44.3278 13.2C44.5811 13.4133 45.0411 13.52 45.7078 13.52H50.5478V16ZM61.3972 4.58L57.5772 16H55.5372L51.6972 4.58H54.4372L56.5572 12.02L58.6572 4.58H61.3972ZM71.5005 10.9H64.8405C64.8405 11.94 65.0005 12.7 65.3205 13.18C65.6538 13.66 66.3138 13.9 67.3005 13.9C67.9405 13.9 68.4138 13.7 68.7205 13.3C69.0271 12.8867 69.1805 12.4933 69.1805 12.12H71.5205C71.5205 13.5467 71.1338 14.5933 70.3605 15.26C69.6005 15.9267 68.5871 16.26 67.3205 16.26C66.0671 16.26 65.0938 16.08 64.4005 15.72C62.9738 14.9867 62.2605 13.04 62.2605 9.88C62.2605 8 62.6671 6.62667 63.4805 5.76C64.2938 4.88 65.5338 4.44 67.2005 4.44C70.0938 4.44 71.5405 6.04667 71.5405 9.26C71.5405 9.60667 71.5271 10.1533 71.5005 10.9ZM64.9005 9.12H69.1805C69.1805 8.24 69.0138 7.6 68.6805 7.2C68.3471 6.8 67.8338 6.6 67.1405 6.6C66.4605 6.6 65.9138 6.80667 65.5005 7.22C65.1005 7.62 64.9005 8.25333 64.9005 9.12ZM82.7575 16H80.1575V8.7C80.1575 8.04667 80.0242 7.6 79.7575 7.36C79.4908 7.12 79.1175 7 78.6375 7L76.2975 7.98V16H73.6975V4.58H75.6375L76.2375 5.94L79.4375 4.46C80.3308 4.46 81.1042 4.79333 81.7575 5.46C82.4242 6.11333 82.7575 7.07333 82.7575 8.34V16ZM90.2423 16H88.6223C87.6357 16 86.8823 15.7067 86.3623 15.12C85.8557 14.5333 85.6023 13.8333 85.6023 13.02V7.02H84.5023V5.04H85.6023V2.8H88.2023V5.04H90.0423V7.02H88.2023V12.86C88.2023 13.4867 88.5023 13.8 89.1023 13.8H90.2423V16Z" fill="#C6C6C6"/>
</svg>
