<svg width="23" height="23" viewBox="0 0 23 23" fill="none" xmlns="http://www.w3.org/2000/svg">
<path d="M14.9166 8.37498C14.9166 10.262 13.3869 11.7916 11.4999 11.7916V13.2916C14.2153 13.2916 16.4166 11.0904 16.4166 8.37498H14.9166ZM11.4999 11.7916C9.61295 11.7916 8.08325 10.262 8.08325 8.37498H6.58325C6.58325 11.0904 8.78452 13.2916 11.4999 13.2916V11.7916ZM8.08325 8.37498C8.08325 6.48801 9.61295 4.95831 11.4999 4.95831V3.45831C8.78452 3.45831 6.58325 5.65958 6.58325 8.37498H8.08325ZM11.4999 4.95831C13.3869 4.95831 14.9166 6.48801 14.9166 8.37498H16.4166C16.4166 5.65958 14.2153 3.45831 11.4999 3.45831V4.95831ZM8.37492 16.4166H14.6249V14.9166H8.37492V16.4166ZM1.83325 11.5C1.83325 6.16123 6.16117 1.83331 11.4999 1.83331V0.333313C5.33274 0.333313 0.333252 5.3328 0.333252 11.5H1.83325ZM11.4999 1.83331C16.8387 1.83331 21.1666 6.16123 21.1666 11.5H22.6666C22.6666 5.3328 17.6671 0.333313 11.4999 0.333313V1.83331ZM21.1666 11.5C21.1666 14.2414 20.0264 16.7153 18.1923 18.4755L19.2309 19.5577C21.3475 17.5264 22.6666 14.6666 22.6666 11.5H21.1666ZM18.1923 18.4755C16.4547 20.143 14.0976 21.1666 11.4999 21.1666V22.6666C14.5001 22.6666 17.2252 21.4825 19.2309 19.5577L18.1923 18.4755ZM14.6249 16.4166C16.2818 16.4166 17.6647 17.5968 17.976 19.1628L19.4472 18.8704C18.9992 16.6161 17.0113 14.9166 14.6249 14.9166V16.4166ZM11.4999 21.1666C8.90221 21.1666 6.54516 20.143 4.80757 18.4755L3.76896 19.5577C5.77464 21.4825 8.49978 22.6666 11.4999 22.6666V21.1666ZM4.80757 18.4755C2.97347 16.7153 1.83325 14.2414 1.83325 11.5H0.333252C0.333252 14.6666 1.65233 17.5264 3.76896 19.5577L4.80757 18.4755ZM8.37492 14.9166C5.9885 14.9166 4.00067 16.6161 3.55265 18.8704L5.02388 19.1628C5.3351 17.5968 6.71802 16.4166 8.37492 16.4166V14.9166Z" fill="#D25917"/>
</svg>
