<svg width="27" height="27" viewBox="0 0 27 27" fill="none" xmlns="http://www.w3.org/2000/svg">
<path d="M24.2848 12.7696C23.5742 11.537 19.6655 5.35198 13.0252 5.55186C6.88459 5.70731 3.33126 11.1039 2.3652 12.7696C2.26774 12.9384 2.21643 13.1299 2.21643 13.3248C2.21643 13.5197 2.26774 13.7112 2.3652 13.88C3.06476 15.0903 6.80687 21.0977 13.3472 21.0977H13.6248C19.7654 20.9422 23.3299 15.5456 24.2848 13.88C24.3823 13.7112 24.4336 13.5197 24.4336 13.3248C24.4336 13.1299 24.3823 12.9384 24.2848 12.7696ZM13.5693 18.8769C8.78341 18.9879 5.66314 14.8905 4.68597 13.3248C5.79639 11.537 8.69457 7.88373 13.1362 7.77269C17.8999 7.65054 21.0313 11.7591 22.0196 13.3248C20.8758 15.1125 18.011 18.7658 13.5693 18.8769Z" fill="#A9A9A9"/>
<path d="M13.325 9.43835C12.5563 9.43835 11.8049 9.66629 11.1658 10.0933C10.5267 10.5204 10.0285 11.1274 9.73438 11.8375C9.44022 12.5477 9.36326 13.3291 9.51322 14.083C9.66318 14.8369 10.0333 15.5294 10.5769 16.073C11.1204 16.6165 11.8129 16.9866 12.5668 17.1366C13.3207 17.2866 14.1021 17.2096 14.8123 16.9154C15.5224 16.6213 16.1294 16.1231 16.5565 15.484C16.9835 14.8449 17.2115 14.0935 17.2115 13.3248C17.2115 12.2941 16.802 11.3055 16.0731 10.5767C15.3443 9.84782 14.3558 9.43835 13.325 9.43835ZM13.325 14.9904C12.9956 14.9904 12.6735 14.8928 12.3996 14.7097C12.1257 14.5267 11.9122 14.2666 11.7862 13.9622C11.6601 13.6579 11.6271 13.323 11.6914 12.9999C11.7556 12.6768 11.9143 12.38 12.1472 12.147C12.3802 11.9141 12.677 11.7555 13.0001 11.6912C13.3231 11.6269 13.6581 11.6599 13.9624 11.786C14.2668 11.912 14.5269 12.1255 14.7099 12.3994C14.8929 12.6734 14.9906 12.9954 14.9906 13.3248C14.9906 13.7666 14.8151 14.1902 14.5028 14.5026C14.1904 14.815 13.7667 14.9904 13.325 14.9904Z" fill="#A9A9A9"/>
</svg>
