<svg width="38" height="35" viewBox="0 0 38 35" fill="none" xmlns="http://www.w3.org/2000/svg">
<path d="M28.5 5.83335H26.9167V4.37502C26.9167 3.98825 26.7498 3.61731 26.4529 3.34382C26.156 3.07033 25.7533 2.91669 25.3333 2.91669C24.9134 2.91669 24.5107 3.07033 24.2137 3.34382C23.9168 3.61731 23.75 3.98825 23.75 4.37502V5.83335H14.25V4.37502C14.25 3.98825 14.0832 3.61731 13.7863 3.34382C13.4893 3.07033 13.0866 2.91669 12.6667 2.91669C12.2467 2.91669 11.844 3.07033 11.5471 3.34382C11.2501 3.61731 11.0833 3.98825 11.0833 4.37502V5.83335H9.5C8.24022 5.83335 7.03204 6.29429 6.14124 7.11476C5.25045 7.93523 4.75 9.04803 4.75 10.2084V27.7084C4.75 28.8687 5.25045 29.9815 6.14124 30.8019C7.03204 31.6224 8.24022 32.0834 9.5 32.0834H28.5C29.7598 32.0834 30.968 31.6224 31.8588 30.8019C32.7496 29.9815 33.25 28.8687 33.25 27.7084V10.2084C33.25 9.04803 32.7496 7.93523 31.8588 7.11476C30.968 6.29429 29.7598 5.83335 28.5 5.83335ZM12.6667 24.7917C12.3535 24.7917 12.0474 24.7062 11.787 24.5459C11.5266 24.3857 11.3237 24.1579 11.2039 23.8914C11.084 23.625 11.0527 23.3317 11.1138 23.0488C11.1748 22.766 11.3256 22.5061 11.5471 22.3022C11.7685 22.0982 12.0506 21.9593 12.3578 21.903C12.6649 21.8468 12.9833 21.8757 13.2726 21.986C13.5619 22.0964 13.8092 22.2833 13.9832 22.5231C14.1571 22.763 14.25 23.0449 14.25 23.3334C14.25 23.7201 14.0832 24.0911 13.7863 24.3646C13.4893 24.638 13.0866 24.7917 12.6667 24.7917ZM25.3333 24.7917H19C18.5801 24.7917 18.1773 24.638 17.8804 24.3646C17.5835 24.0911 17.4167 23.7201 17.4167 23.3334C17.4167 22.9466 17.5835 22.5756 17.8804 22.3022C18.1773 22.0287 18.5801 21.875 19 21.875H25.3333C25.7533 21.875 26.156 22.0287 26.4529 22.3022C26.7498 22.5756 26.9167 22.9466 26.9167 23.3334C26.9167 23.7201 26.7498 24.0911 26.4529 24.3646C26.156 24.638 25.7533 24.7917 25.3333 24.7917ZM30.0833 16.0417H7.91667V10.2084C7.91667 9.82158 8.08348 9.45065 8.38041 9.17716C8.67735 8.90367 9.08007 8.75002 9.5 8.75002H11.0833V10.2084C11.0833 10.5951 11.2501 10.9661 11.5471 11.2396C11.844 11.513 12.2467 11.6667 12.6667 11.6667C13.0866 11.6667 13.4893 11.513 13.7863 11.2396C14.0832 10.9661 14.25 10.5951 14.25 10.2084V8.75002H23.75V10.2084C23.75 10.5951 23.9168 10.9661 24.2137 11.2396C24.5107 11.513 24.9134 11.6667 25.3333 11.6667C25.7533 11.6667 26.156 11.513 26.4529 11.2396C26.7498 10.9661 26.9167 10.5951 26.9167 10.2084V8.75002H28.5C28.9199 8.75002 29.3227 8.90367 29.6196 9.17716C29.9165 9.45065 30.0833 9.82158 30.0833 10.2084V16.0417Z" fill="black"/>
</svg>
