<svg width="23" height="21" viewBox="0 0 23 21" fill="none" xmlns="http://www.w3.org/2000/svg">
<g id="Group">
<path id="Vector" d="M19.7013 20.0009C19.8062 20.1044 19.9307 20.1866 20.0678 20.2426C20.2048 20.2987 20.3517 20.3275 20.5 20.3275C20.6484 20.3275 20.7953 20.2987 20.9323 20.2426C21.0694 20.1866 21.1939 20.1044 21.2988 20.0009C21.5106 19.7918 21.6296 19.5081 21.6296 19.2124C21.6296 18.9166 21.5106 18.633 21.2988 18.4238L14.965 12.1711C15.3658 11.4352 15.5156 10.5914 15.3924 9.76476C15.2692 8.93816 14.8795 8.17274 14.2811 7.58195C13.6827 6.99116 12.9073 6.60645 12.07 6.48483C11.2327 6.36322 10.378 6.51117 9.63254 6.90677L3.29878 0.654018C3.1942 0.549921 3.06978 0.467297 2.93269 0.410912C2.79559 0.354528 2.64855 0.325499 2.50004 0.325499C2.35152 0.325499 2.20448 0.354528 2.06739 0.410912C1.9303 0.467297 1.80587 0.549921 1.70129 0.654018C1.59584 0.757263 1.51215 0.880098 1.45503 1.01544C1.39792 1.15077 1.36851 1.29594 1.36851 1.44255C1.36851 1.58917 1.39792 1.73433 1.45503 1.86967C1.51215 2.00501 1.59584 2.12784 1.70129 2.23109L19.7013 20.0009ZM11.5 8.66154C11.9476 8.66154 12.3768 8.83705 12.6933 9.14947C13.0097 9.46189 13.1875 9.88563 13.1875 10.3275C13.1875 10.3275 13.1875 10.383 13.1875 10.4052L11.4325 8.67264L11.5 8.66154Z" fill="#A9A9A9"/>
<path id="Vector_2" d="M11.2524 4.77441C16.0899 4.66335 19.2624 8.76151 20.2524 10.3275C19.5476 11.4373 18.7006 12.4527 17.7324 13.3483L19.3749 14.9143C20.6447 13.7332 21.7325 12.375 22.6037 10.8828C22.7024 10.7139 22.7544 10.5224 22.7544 10.3275C22.7544 10.1325 22.7024 9.941 22.6037 9.77217C21.8949 8.5616 18.1037 2.55319 11.4774 2.55319H11.1962C9.95018 2.58967 8.72031 2.84152 7.56242 3.2973L9.33992 5.05206C9.96501 4.88973 10.6065 4.7966 11.2524 4.77441Z" fill="#A9A9A9"/>
<path id="Vector_3" d="M0.396249 10.8827C1.11625 12.1155 5.0875 18.3016 11.8038 18.1017C13.0497 18.0652 14.2796 17.8134 15.4375 17.3576L13.66 15.6028C13.0349 15.7652 12.3935 15.8583 11.7475 15.8805C6.92125 16.0026 3.74875 11.8934 2.7475 10.3274C3.46968 9.21426 4.33572 8.19875 5.32375 7.30655L3.625 5.74059C2.3393 6.91859 1.23623 8.27698 0.35125 9.77211C0.259262 9.94482 0.214991 10.1384 0.222891 10.3334C0.23079 10.5283 0.290582 10.7178 0.396249 10.8827Z" fill="#A9A9A9"/>
</g>
</svg>
