<svg width="35" height="35" viewBox="0 0 35 35" fill="none" xmlns="http://www.w3.org/2000/svg">
<path d="M10.2083 14.5833C9.43474 14.5833 8.69288 14.8905 8.1459 15.4375C7.59892 15.9845 7.29163 16.7264 7.29163 17.4999C7.29163 18.2735 7.59892 19.0153 8.1459 19.5623C8.69288 20.1093 9.43474 20.4166 10.2083 20.4166C10.9818 20.4166 11.7237 20.1093 12.2707 19.5623C12.8177 19.0153 13.125 18.2735 13.125 17.4999C13.125 16.7264 12.8177 15.9845 12.2707 15.4375C11.7237 14.8905 10.9818 14.5833 10.2083 14.5833Z" fill="white"/>
<path fill-rule="evenodd" clip-rule="evenodd" d="M10.2083 9.1145C8.7275 9.11457 7.27314 9.50676 5.99307 10.2512C4.71301 10.9956 3.65291 12.0658 2.92056 13.3528C2.18821 14.6398 1.80973 16.0978 1.82361 17.5785C1.83749 19.0592 2.24323 20.5099 2.99958 21.783C3.75593 23.056 4.83591 24.1061 6.1297 24.8264C7.4235 25.5467 8.88496 25.9116 10.3655 25.8839C11.846 25.8562 13.2928 25.4369 14.5588 24.6687C15.8247 23.9005 16.8647 22.8108 17.5729 21.5103H22.2395V24.7916C22.2395 25.3953 22.7295 25.8853 23.3333 25.8853H28.4375C28.7275 25.8853 29.0057 25.7701 29.2109 25.565C29.416 25.3599 29.5312 25.0817 29.5312 24.7916V21.5103H32.0833C32.3734 21.5103 32.6516 21.3951 32.8567 21.19C33.0618 20.9849 33.177 20.7067 33.177 20.4166V16.0416C33.177 15.3647 32.9082 14.7156 32.4296 14.237C31.951 13.7584 31.3018 13.4895 30.625 13.4895H17.5729C16.8519 12.1656 15.7874 11.0606 14.4914 10.2907C13.1954 9.52074 11.7158 9.11444 10.2083 9.1145ZM4.01038 17.4999C4.00899 16.0749 4.49867 14.693 5.39697 13.5868C6.29527 12.4806 7.54732 11.7177 8.94227 11.4266C10.3372 11.1355 11.7899 11.334 13.0556 11.9887C14.3213 12.6433 15.3228 13.7141 15.8914 15.0208C15.9765 15.2157 16.1166 15.3816 16.2946 15.4982C16.4725 15.6148 16.6806 15.6769 16.8933 15.677H30.625C30.7217 15.677 30.8144 15.7154 30.8828 15.7838C30.9511 15.8522 30.9895 15.9449 30.9895 16.0416V19.3228H28.4375C28.1474 19.3228 27.8692 19.4381 27.6641 19.6432C27.4589 19.8483 27.3437 20.1265 27.3437 20.4166V23.6978H24.427V20.4166C24.427 20.1265 24.3118 19.8483 24.1067 19.6432C23.9016 19.4381 23.6234 19.3228 23.3333 19.3228H16.8933C16.6806 19.3229 16.4725 19.3851 16.2946 19.5016C16.1166 19.6182 15.9765 19.7841 15.8914 19.9791C15.3217 21.2843 14.32 22.3535 13.0546 23.0071C11.7893 23.6606 10.3375 23.8585 8.94343 23.5676C7.54933 23.2767 6.29789 22.5147 5.39951 21.4097C4.50113 20.3047 4.0106 18.9241 4.01038 17.4999Z" fill="white"/>
</svg>
