<?xml version="1.0" encoding="UTF-8"?>
<svg version="1.1" xmlns="http://www.w3.org/2000/svg" width="1200" height="1200">
<path d="M0 0 C1.35072418 -0.00258892 2.7014476 -0.00560353 4.05216998 -0.0090034 C7.74015528 -0.01701518 11.42812105 -0.0188597 15.11611402 -0.01960087 C19.10343081 -0.0214617 23.0907377 -0.02901424 27.07804871 -0.03573608 C35.78726511 -0.04927951 44.49647689 -0.05533818 53.20570207 -0.05974674 C58.65300165 -0.06251652 64.10029949 -0.06675524 69.54759789 -0.07125092 C84.65530822 -0.08343948 99.76301716 -0.09373889 114.87073231 -0.09712601 C115.8364424 -0.09734557 116.80215248 -0.09756514 117.79712651 -0.09779136 C118.76503875 -0.09800964 119.732951 -0.09822791 120.73019391 -0.09845281 C122.69127897 -0.09889626 124.65236404 -0.09934282 126.6134491 -0.09979248 C127.58619782 -0.10001391 128.55894655 -0.10023534 129.56117251 -0.10046348 C145.30206305 -0.10440646 161.04290715 -0.12184707 176.78377978 -0.145152 C192.97840731 -0.16893339 209.17301162 -0.18133097 225.36765689 -0.18249393 C234.44663601 -0.183407 243.52555464 -0.1890658 252.60451698 -0.20731354 C260.3397397 -0.2228066 268.07488323 -0.22778131 275.81011853 -0.21957543 C279.74794246 -0.21570092 283.6856074 -0.21643927 287.62341118 -0.23063278 C330.85686486 -0.37728613 368.29429545 7.24793897 400.10490417 38.61309814 C413.95701866 52.89000002 423.83919125 69.78865737 430.38615417 88.51544189 C430.65669617 89.2672876 430.92723816 90.0191333 431.20597839 90.79376221 C437.39827111 109.85361562 436.88766922 130.19577693 436.82616913 149.98883283 C436.81720075 153.9540516 436.82580634 157.91924174 436.83203125 161.88446045 C436.84144751 169.62138454 436.83498366 177.35821437 436.82276831 185.09513137 C436.80904819 194.12622522 436.81079483 203.15729742 436.81290164 212.18839904 C436.81608081 228.31069749 436.80448393 244.43295153 436.78483582 260.55523682 C436.76582044 276.16267243 436.75875376 291.77005607 436.764328 307.37750244 C436.7703981 324.42345206 436.77018742 341.46937893 436.75884217 358.51532668 C436.75763502 360.3357507 436.75642903 362.15617472 436.75522423 363.97659874 C436.75431892 365.31972562 436.75431892 365.31972562 436.75339532 366.68998638 C436.74953187 372.97051513 436.74990361 379.25103535 436.75181007 385.53156471 C436.75394124 393.19163538 436.7486382 400.85166077 436.73419652 408.51171873 C436.72699861 412.41250516 436.72283578 416.31322597 436.72743988 420.21401787 C436.76549669 456.99509247 436.76549669 456.99509247 431.82365417 473.57794189 C431.43451843 474.89979492 431.43451843 474.89979492 431.03752136 476.24835205 C424.86198146 496.37509696 414.08480023 513.16686308 399.44865417 528.14044189 C398.6365448 529.01442627 397.82443542 529.88841064 396.98771667 530.78887939 C373.09512226 555.9186308 338.79907691 566.31083356 305.02251601 567.23409307 C301.62382895 567.27033789 298.22640509 567.27866251 294.82752991 567.27415466 C292.90105218 567.277553 292.90105218 567.277553 290.93565571 567.28101999 C287.41858648 567.2870605 283.90154129 567.28701369 280.38446808 567.28582561 C276.57242986 567.28561961 272.76039897 567.29115912 268.94836426 567.29588318 C261.49773404 567.30414753 254.04711174 567.3069361 246.59647731 567.30749556 C240.53294119 567.30797271 234.46940765 567.31003737 228.40587234 567.31319618 C211.16955073 567.32199114 193.93323531 567.32661736 176.69691144 567.32586571 C175.77000607 567.32582575 174.84310071 567.3257858 173.8881073 567.32574463 C172.96005469 567.32570375 172.03200208 567.32566287 171.07582666 567.32562075 C156.04658257 567.32521458 141.01736357 567.3347799 125.98812674 567.348883 C110.51202885 567.36328946 95.03594317 567.37015084 79.55983841 567.36928922 C70.88895552 567.36895873 62.21809894 567.37164054 53.54722214 567.38246727 C46.16347007 567.39162868 38.77975623 567.39370167 31.39600091 567.38695785 C27.63842388 567.38372088 23.88091995 567.38353199 20.12335014 567.3923111 C-27.2004145 567.49557067 -65.36774845 560.17341401 -100.05525208 525.64825439 C-122.31384992 502.17048453 -134.09278375 470.68526477 -133.93902588 438.48120117 C-133.9432131 437.0833345 -133.94869813 435.68547124 -133.95534569 434.28761411 C-133.96963754 430.4971728 -133.96560735 426.70695192 -133.95817888 422.91649938 C-133.95340857 418.80863685 -133.96599094 414.70081941 -133.97619629 410.5929718 C-133.99331533 402.56460213 -133.9942386 394.53631097 -133.98898339 386.50792781 C-133.9849271 379.97576921 -133.98640248 373.44363365 -133.99173164 366.91147614 C-133.99248007 365.97857097 -133.99322849 365.04566581 -133.99399959 364.08449079 C-133.99553121 362.18872696 -133.99706956 360.29296313 -133.99861456 358.3971993 C-134.01231496 340.65370331 -134.00691952 322.91025151 -133.99542934 305.16675654 C-133.98550226 288.97289249 -133.99843296 272.77914278 -134.02236354 256.58529636 C-134.04681092 239.91473846 -134.05634842 223.24423368 -134.04971081 206.57365823 C-134.04623074 197.23154388 -134.04836992 187.88951737 -134.06596184 178.54741669 C-134.08075468 170.59379335 -134.08122761 162.64031969 -134.06389093 154.68669906 C-134.0554359 150.63753366 -134.05309467 146.58863483 -134.06854248 142.53948402 C-134.12686736 126.0720036 -133.9574062 110.14016644 -129.55134583 94.14044189 C-129.36633259 93.45716875 -129.18131935 92.7738956 -128.99069965 92.0699172 C-123.41098189 71.80062511 -111.86818099 54.29653981 -97.55134583 39.14044189 C-96.86556458 38.39020752 -96.17978333 37.63997314 -95.47322083 36.86700439 C-70.80943388 10.83300707 -34.99734289 -0.02452117 0 0 Z M-61.55134583 85.14044189 C-73.22545216 101.01885925 -76.87345976 118.1904673 -76.81204224 137.54161072 C-76.81586778 138.83843885 -76.81969333 140.13526698 -76.8236348 141.47139293 C-76.83384002 145.03719183 -76.83175226 148.60288935 -76.82745421 152.16869628 C-76.82497322 156.02775309 -76.83401819 159.88678634 -76.8414917 163.74583435 C-76.85420361 171.29380033 -76.85603671 178.84173068 -76.85369144 186.38970556 C-76.85190387 192.53010509 -76.8536673 198.67049386 -76.85791588 204.81089211 C-76.85851107 205.68692281 -76.85910626 206.56295352 -76.85971948 207.46553061 C-76.86093132 209.24558077 -76.86214545 211.02563093 -76.86336186 212.80568109 C-76.87422427 229.47843501 -76.8720813 246.15116869 -76.86597701 262.82392374 C-76.86081128 278.04683814 -76.87205655 293.26968848 -76.89107523 308.49259021 C-76.91049035 324.15390011 -76.91870306 339.81517976 -76.91495198 355.47650176 C-76.91304521 364.25685949 -76.91547596 373.03716275 -76.92966652 381.8175106 C-76.94162836 389.29405945 -76.94293185 396.77052029 -76.93087635 404.24707045 C-76.92502064 408.05479312 -76.92379538 411.86235522 -76.93587875 415.67006683 C-77.01987817 444.11542267 -75.16111399 467.83517179 -54.80134583 489.45294189 C-39.8002368 503.73529608 -21.27993206 509.45805874 -1.01068115 509.40786743 C0.35099473 509.41160925 1.71266847 509.41621288 3.07433885 509.42159808 C6.79706072 509.43377829 10.51969239 509.43357351 14.24242961 509.43120933 C18.26512387 509.43079988 22.2877897 509.44185256 26.31047058 509.45132446 C34.18537005 509.46790905 42.06023957 509.47343289 49.93515504 509.47454922 C56.3407001 509.47550108 62.74623532 509.47961828 69.15177727 509.48595047 C87.33428022 509.50355743 105.51675961 509.51279042 123.69927115 509.51128952 C125.16837615 509.51116965 125.16837615 509.51116965 126.66716003 509.51104736 C127.64776704 509.5109656 128.62837405 509.51088384 129.63869642 509.5107996 C145.51884478 509.50998728 161.39889816 509.52911274 177.27901907 509.5573241 C193.60580717 509.58609874 209.93254903 509.59986181 226.25936311 509.59813654 C235.41701961 509.59747413 244.57457659 509.60290077 253.73221016 509.62449265 C261.53166818 509.64276502 269.33098158 509.64700246 277.13045181 509.6334738 C281.10414564 509.62697401 285.07756253 509.62671755 289.05122948 509.6441803 C315.33792769 509.7523971 337.16794875 507.71104831 357.44865417 489.14044189 C372.59155108 473.45348881 378.76986103 455.02958215 378.71607971 433.63137817 C378.71982284 432.28533841 378.72442699 430.93930081 378.72981036 429.59326661 C378.74197411 425.91841001 378.74178777 422.2436449 378.73942161 418.56877279 C378.73901175 414.59585786 378.75006871 410.6229716 378.75953674 406.65007019 C378.77611178 398.87490375 378.78164472 391.09976764 378.7827615 383.32458501 C378.78371372 377.00010883 378.78783272 370.67564261 378.79416275 364.35116959 C378.81176635 346.39592483 378.82100311 328.44070394 378.8195018 310.48545049 C378.81942189 309.51856054 378.81934198 308.5516706 378.81925964 307.55548096 C378.819137 306.10336238 378.819137 306.10336238 378.81901188 304.62190808 C378.81819944 288.94228511 378.83732882 273.2627583 378.86553638 257.58316313 C378.89431202 241.45974551 378.90807407 225.33637473 378.90634882 209.2129308 C378.90568649 200.17042485 378.91110966 191.12801969 378.93270493 182.08553696 C378.95097853 174.38491668 378.95521366 166.68444288 378.94168608 158.98381023 C378.93518717 155.0607398 378.93492658 151.13794988 378.95239258 147.21490669 C379.06814103 119.43606679 376.43495992 97.93663758 356.36662292 76.96466064 C344.89969207 66.0083167 328.66982456 58.03472646 312.65911293 58.00622082 C311.49495405 58.00176297 310.33079517 57.99730513 309.13135874 57.9927122 C307.21918765 57.99298874 307.21918765 57.99298874 305.26838684 57.99327087 C303.89707758 57.98996996 302.52576928 57.98624391 301.15446222 57.9821294 C297.38659103 57.97212681 293.61873578 57.96839539 289.8508532 57.96574008 C285.78653301 57.96183175 281.72222537 57.95225365 277.65791321 57.94352722 C267.84152436 57.92377574 258.02513451 57.91369738 248.20873076 57.90479943 C243.58233833 57.90041359 238.95594704 57.89504747 234.32955551 57.88981056 C218.94324036 57.87279811 203.55692591 57.85830559 188.1706028 57.85106182 C184.17881392 57.84915202 180.18702506 57.84723168 176.19523621 57.84527588 C175.20313304 57.84479214 174.21102987 57.8443084 173.18886296 57.84381 C157.12996034 57.8355159 141.07113236 57.81018952 125.0122623 57.7776952 C108.51271902 57.74458238 92.01321362 57.72660917 75.51363695 57.72341758 C66.2547832 57.72125618 56.99603824 57.71256207 47.73721695 57.68695641 C39.84907463 57.66519149 31.96106752 57.65722729 24.07289858 57.66692319 C20.05277084 57.67145144 16.03292172 57.66966845 12.01283264 57.65016174 C8.32234609 57.6324102 4.63233891 57.6336234 0.94184642 57.64905903 C-1.00432977 57.65252225 -2.9505117 57.63649868 -4.89661634 57.61945456 C-27.70305809 57.78387538 -46.72762844 68.06925768 -61.55134583 85.14044189 Z " fill="#FFFFFF" transform="translate(460.5513458251953,326.85955810546875)"/>
<path d="M0 0 C0.81984375 0.78632813 1.6396875 1.57265625 2.484375 2.3828125 C3.42796875 3.25164062 4.3715625 4.12046875 5.34375 5.015625 C31.00534461 29.11524591 46.56737369 64.82142817 47.79296875 99.8359375 C48.18939882 115.66621911 47.49713942 130.98170963 43.484375 146.3828125 C43.29133789 147.14094238 43.09830078 147.89907227 42.89941406 148.68017578 C38.06253698 166.88001786 28.76419838 185.10133293 16.484375 199.3828125 C15.78054688 200.21167969 15.07671875 201.04054688 14.3515625 201.89453125 C12.11605706 204.44653298 9.81855993 206.92083001 7.484375 209.3828125 C6.59105469 210.34058594 5.69773437 211.29835938 4.77734375 212.28515625 C-20.45410937 238.82286989 -56.9875086 254.28170283 -93.515625 255.3828125 C-94.50949219 255.42277344 -95.50335937 255.46273438 -96.52734375 255.50390625 C-138.26483421 256.3941664 -174.52425994 239.84563903 -204.98046875 212.140625 C-228.05699864 189.99688982 -241.64903112 159.6243033 -246.515625 128.3828125 C-246.64839844 127.55007813 -246.78117187 126.71734375 -246.91796875 125.859375 C-251.63274076 89.0454018 -241.09410956 49.7706813 -218.515625 20.3828125 C-214.68873385 15.56001969 -210.66382507 10.93054735 -206.515625 6.3828125 C-205.82855469 5.62355469 -205.14148438 4.86429687 -204.43359375 4.08203125 C-182.11419908 -19.36508021 -149.41144363 -34.04584101 -117.515625 -37.6171875 C-116.56558594 -37.73964844 -115.61554688 -37.86210937 -114.63671875 -37.98828125 C-73.18603965 -42.36573237 -30.42492021 -28.53579117 0 0 Z M-166.91796875 48.34375 C-183.70135892 67.97905459 -191.1936016 91.104748 -189.73876953 116.76269531 C-187.6455414 141.34094947 -174.48439539 162.58997494 -156.0078125 178.4453125 C-135.24414535 194.58759919 -110.96834263 199.89157677 -85.078125 197.12207031 C-62.32516373 193.78723928 -41.52559097 180.32240308 -27.515625 162.3828125 C-12.92140352 141.69458815 -6.82778729 118.11953883 -10.7734375 93.1484375 C-15.31806278 70.09044395 -27.74427508 48.67933437 -47.515625 35.3828125 C-86.36848248 10.31027886 -134.7088763 14.66413933 -166.91796875 48.34375 Z " fill="#FFFFFF" transform="translate(711.515625,503.6171875)"/>
<path d="M0 0 C8.74966719 5.80208427 16.64166925 13.41703455 19.6953125 23.68359375 C21.79055934 35.14298226 20.79887389 46.18609996 14.5078125 56.14453125 C7.5679909 65.59898457 -1.33125695 70.43461325 -12.796875 72.4609375 C-23.70106754 73.78936705 -34.13633246 69.96004549 -42.796875 63.4609375 C-49.9821637 57.20007191 -54.46282066 48.83649932 -55.2421875 39.296875 C-55.75462098 27.59326044 -53.57914631 17.72718237 -45.921875 8.53515625 C-34.43022971 -2.68187252 -14.93466274 -7.36289317 0 0 Z " fill="#FFFFFF" transform="translate(781.796875,432.5390625)"/>
</svg>
