<svg width="203" height="31" viewBox="0 0 203 31" fill="none" xmlns="http://www.w3.org/2000/svg">
<path d="M10.2 30.2401C7.72 30.2401 5.8 29.8268 4.44 29.0001C3.08 28.1468 2.09333 27.0268 1.48 25.6401C0.866667 24.2268 0.506667 22.6268 0.4 20.8401C0.293333 19.0535 0.24 17.2135 0.24 15.3201C0.24 13.4001 0.293333 11.5468 0.4 9.76013C0.506667 7.97346 0.866667 6.3868 1.48 5.00013C2.09333 3.61346 3.08 2.5068 4.44 1.68013C5.8 0.826797 7.72 0.400131 10.2 0.400131C13.2933 0.400131 15.4933 1.2268 16.8 2.88013C18.1333 4.5068 18.7333 6.88013 18.6 10.0001H12.68C12.68 8.08013 12.4933 6.72013 12.12 5.92013C11.7467 5.12013 11.1067 4.72013 10.2 4.72013C9.34667 4.72013 8.66667 4.93346 8.16 5.36013C7.65333 5.76013 7.26667 6.3868 7 7.24013C6.73333 8.09346 6.56 9.20013 6.48 10.5601C6.4 11.8935 6.36 13.4801 6.36 15.3201C6.36 17.1601 6.4 18.7601 6.48 20.1201C6.56 21.4535 6.73333 22.5468 7 23.4001C7.26667 24.2535 7.65333 24.8935 8.16 25.3201C8.66667 25.7201 9.34667 25.9201 10.2 25.9201C10.8933 25.9201 11.4267 25.7201 11.8 25.3201C12.1733 24.9201 12.44 24.4268 12.6 23.8401C12.76 23.2535 12.8533 22.6135 12.88 21.9201C12.9067 21.2268 12.9333 20.6001 12.96 20.0401H18.92C18.92 21.9601 18.7333 23.5735 18.36 24.8801C17.9867 26.1868 17.4267 27.2401 16.68 28.0401C15.9333 28.8401 15.0133 29.4135 13.92 29.7601C12.8533 30.0801 11.6133 30.2401 10.2 30.2401ZM27.8266 9.56013V12.1601H27.9066C28.4399 10.9868 29.1599 10.2001 30.0666 9.80013C30.9732 9.37346 31.9999 9.16013 33.1466 9.16013V14.2001C31.8932 14.1201 30.9199 14.2268 30.2266 14.5201C29.5599 14.7868 29.0666 15.1601 28.7466 15.6401C28.4266 16.0935 28.2399 16.6001 28.1866 17.1601C28.1332 17.7201 28.1066 18.2535 28.1066 18.7601V29.7601H22.4666V9.56013H27.8266ZM46.1469 17.4001C46.1469 16.9201 46.1335 16.4001 46.1069 15.8401C46.1069 15.2801 46.0269 14.7601 45.8669 14.2801C45.7069 13.8001 45.4402 13.4135 45.0669 13.1201C44.7202 12.8001 44.2135 12.6401 43.5469 12.6401C42.9069 12.6401 42.4135 12.8135 42.0669 13.1601C41.7202 13.4801 41.4669 13.8935 41.3069 14.4001C41.1469 14.8801 41.0535 15.4001 41.0269 15.9601C41.0002 16.4935 40.9869 16.9735 40.9869 17.4001H46.1469ZM40.9869 20.5601C40.9869 21.1735 41.0002 21.8268 41.0269 22.5201C41.0802 23.2135 41.1869 23.8668 41.3469 24.4801C41.5069 25.0668 41.7602 25.5601 42.1069 25.9601C42.4535 26.3601 42.9335 26.5601 43.5469 26.5601C44.0535 26.5601 44.4535 26.4535 44.7469 26.2401C45.0669 26.0268 45.3069 25.7468 45.4669 25.4001C45.6535 25.0535 45.7735 24.6668 45.8269 24.2401C45.9069 23.8135 45.9469 23.3868 45.9469 22.9601H51.6669C51.5869 25.2268 50.8669 26.9735 49.5069 28.2001C48.8402 28.8135 48.0135 29.2935 47.0269 29.6401C46.0402 29.9868 44.8802 30.1601 43.5469 30.1601C41.7335 30.1601 40.2802 29.8935 39.1869 29.3601C38.0935 28.8268 37.2535 28.0935 36.6669 27.1601C36.1069 26.2001 35.7335 25.0668 35.5469 23.7601C35.3869 22.4268 35.3069 20.9735 35.3069 19.4001C35.3069 18.0135 35.3869 16.7068 35.5469 15.4801C35.7069 14.2268 36.0669 13.1335 36.6269 12.2001C37.1869 11.2668 38.0135 10.5335 39.1069 10.0001C40.2002 9.44013 41.6802 9.16013 43.5469 9.16013C45.4402 9.16013 46.9469 9.45346 48.0669 10.0401C49.1869 10.6268 50.0269 11.4268 50.5869 12.4401C51.1469 13.4535 51.4935 14.6535 51.6269 16.0401C51.7869 17.4268 51.8402 18.9335 51.7869 20.5601H40.9869ZM65.5869 20.0001C64.8935 20.0268 64.2402 20.0535 63.6269 20.0801C63.0402 20.1068 62.5202 20.2268 62.0669 20.4401C61.6402 20.6268 61.3069 20.9601 61.0669 21.4401C60.8269 21.8935 60.7069 22.5735 60.7069 23.4801C60.7069 23.8535 60.7202 24.2268 60.7469 24.6001C60.8002 24.9735 60.8935 25.3201 61.0269 25.6401C61.1869 25.9335 61.4002 26.1868 61.6669 26.4001C61.9602 26.5868 62.3335 26.6801 62.7869 26.6801C63.6135 26.6801 64.2269 26.4401 64.6269 25.9601C65.0269 25.4535 65.2935 24.8535 65.4269 24.1601C65.5602 23.4668 65.6135 22.7468 65.5869 22.0001C65.5869 21.2268 65.5869 20.5601 65.5869 20.0001ZM71.1069 26.0001C71.1069 26.6135 71.1335 27.2401 71.1869 27.8801C71.2669 28.5201 71.3335 29.1468 71.3869 29.7601H66.1469L65.9069 27.0801H65.8269C65.2135 28.1201 64.4802 28.8935 63.6269 29.4001C62.8002 29.9068 61.7735 30.1601 60.5469 30.1601C59.5602 30.1601 58.7202 29.9868 58.0269 29.6401C57.3602 29.2935 56.8135 28.8401 56.3869 28.2801C55.9602 27.6935 55.6535 27.0135 55.4669 26.2401C55.2802 25.4401 55.1869 24.6001 55.1869 23.7201C55.1869 22.0401 55.4802 20.7335 56.0669 19.8001C56.6535 18.8668 57.4269 18.1868 58.3869 17.7601C59.3735 17.3068 60.4935 17.0401 61.7469 16.9601C63.0002 16.8535 64.2802 16.8135 65.5869 16.8401V15.2801C65.5869 14.8535 65.5602 14.4668 65.5069 14.1201C65.4802 13.7468 65.3869 13.4268 65.2269 13.1601C65.0669 12.8935 64.8269 12.6935 64.5069 12.5601C64.2135 12.4001 63.8135 12.3201 63.3069 12.3201C62.8269 12.3201 62.4402 12.4135 62.1469 12.6001C61.8535 12.7601 61.6402 12.9868 61.5069 13.2801C61.3735 13.5468 61.2802 13.8668 61.2269 14.2401C61.2002 14.6135 61.1869 15.0001 61.1869 15.4001H55.6669C55.6669 14.1735 55.8402 13.1601 56.1869 12.3601C56.5602 11.5601 57.0802 10.9335 57.7469 10.4801C58.3869 10.0001 59.1469 9.6668 60.0269 9.48013C60.9335 9.2668 61.9335 9.16013 63.0269 9.16013C64.8135 9.16013 66.2402 9.3468 67.3069 9.72013C68.3735 10.0668 69.1869 10.5468 69.7469 11.1601C70.3069 11.7735 70.6669 12.4935 70.8269 13.3201C71.0135 14.1468 71.1069 15.0135 71.1069 15.9201V26.0001ZM73.5069 9.56013H75.7869V6.36013L81.4269 3.84013V9.56013H84.3469V13.0401H81.4269V23.8401C81.4269 24.2135 81.4269 24.5601 81.4269 24.8801C81.4535 25.2001 81.5202 25.4668 81.6269 25.6801C81.7335 25.8935 81.9069 26.0668 82.1469 26.2001C82.4135 26.3068 82.7735 26.3601 83.2269 26.3601C83.4135 26.3601 83.5869 26.3601 83.7469 26.3601C83.9335 26.3601 84.0935 26.3335 84.2269 26.2801V29.7601C83.8535 29.8135 83.4402 29.8535 82.9869 29.8801C82.5602 29.9335 82.0002 29.9601 81.3069 29.9601C80.0802 29.9601 79.1069 29.7868 78.3869 29.4401C77.6669 29.0935 77.1069 28.6801 76.7069 28.2001C76.3335 27.7201 76.0802 27.2268 75.9469 26.7201C75.8402 26.2135 75.7869 25.8001 75.7869 25.4801V13.0401H73.5069V9.56013ZM97.2797 17.4001C97.2797 16.9201 97.2664 16.4001 97.2397 15.8401C97.2397 15.2801 97.1597 14.7601 96.9997 14.2801C96.8397 13.8001 96.573 13.4135 96.1997 13.1201C95.853 12.8001 95.3464 12.6401 94.6797 12.6401C94.0397 12.6401 93.5464 12.8135 93.1997 13.1601C92.853 13.4801 92.5997 13.8935 92.4397 14.4001C92.2797 14.8801 92.1864 15.4001 92.1597 15.9601C92.133 16.4935 92.1197 16.9735 92.1197 17.4001H97.2797ZM92.1197 20.5601C92.1197 21.1735 92.133 21.8268 92.1597 22.5201C92.213 23.2135 92.3197 23.8668 92.4797 24.4801C92.6397 25.0668 92.893 25.5601 93.2397 25.9601C93.5864 26.3601 94.0664 26.5601 94.6797 26.5601C95.1864 26.5601 95.5864 26.4535 95.8797 26.2401C96.1997 26.0268 96.4397 25.7468 96.5997 25.4001C96.7864 25.0535 96.9064 24.6668 96.9597 24.2401C97.0397 23.8135 97.0797 23.3868 97.0797 22.9601H102.8C102.72 25.2268 102 26.9735 100.64 28.2001C99.973 28.8135 99.1464 29.2935 98.1597 29.6401C97.173 29.9868 96.013 30.1601 94.6797 30.1601C92.8664 30.1601 91.413 29.8935 90.3197 29.3601C89.2264 28.8268 88.3864 28.0935 87.7997 27.1601C87.2397 26.2001 86.8664 25.0668 86.6797 23.7601C86.5197 22.4268 86.4397 20.9735 86.4397 19.4001C86.4397 18.0135 86.5197 16.7068 86.6797 15.4801C86.8397 14.2268 87.1997 13.1335 87.7597 12.2001C88.3197 11.2668 89.1464 10.5335 90.2397 10.0001C91.333 9.44013 92.813 9.16013 94.6797 9.16013C96.573 9.16013 98.0797 9.45346 99.1997 10.0401C100.32 10.6268 101.16 11.4268 101.72 12.4401C102.28 13.4535 102.626 14.6535 102.76 16.0401C102.92 17.4268 102.973 18.9335 102.92 20.5601H92.1197ZM116.067 29.7601V0.880129H131.827V5.32013H122.107V12.4401H131.067V16.8801H122.107V25.3201H132.147V29.7601H116.067ZM133.867 9.56013H139.587L142.427 24.7201H142.507L145.467 9.56013H150.987L145.427 29.7601H139.227L133.867 9.56013ZM163.92 17.4001C163.92 16.9201 163.907 16.4001 163.88 15.8401C163.88 15.2801 163.8 14.7601 163.64 14.2801C163.48 13.8001 163.214 13.4135 162.84 13.1201C162.494 12.8001 161.987 12.6401 161.32 12.6401C160.68 12.6401 160.187 12.8135 159.84 13.1601C159.494 13.4801 159.24 13.8935 159.08 14.4001C158.92 14.8801 158.827 15.4001 158.8 15.9601C158.774 16.4935 158.76 16.9735 158.76 17.4001H163.92ZM158.76 20.5601C158.76 21.1735 158.774 21.8268 158.8 22.5201C158.854 23.2135 158.96 23.8668 159.12 24.4801C159.28 25.0668 159.534 25.5601 159.88 25.9601C160.227 26.3601 160.707 26.5601 161.32 26.5601C161.827 26.5601 162.227 26.4535 162.52 26.2401C162.84 26.0268 163.08 25.7468 163.24 25.4001C163.427 25.0535 163.547 24.6668 163.6 24.2401C163.68 23.8135 163.72 23.3868 163.72 22.9601H169.44C169.36 25.2268 168.64 26.9735 167.28 28.2001C166.614 28.8135 165.787 29.2935 164.8 29.6401C163.814 29.9868 162.654 30.1601 161.32 30.1601C159.507 30.1601 158.054 29.8935 156.96 29.3601C155.867 28.8268 155.027 28.0935 154.44 27.1601C153.88 26.2001 153.507 25.0668 153.32 23.7601C153.16 22.4268 153.08 20.9735 153.08 19.4001C153.08 18.0135 153.16 16.7068 153.32 15.4801C153.48 14.2268 153.84 13.1335 154.4 12.2001C154.96 11.2668 155.787 10.5335 156.88 10.0001C157.974 9.44013 159.454 9.16013 161.32 9.16013C163.214 9.16013 164.72 9.45346 165.84 10.0401C166.96 10.6268 167.8 11.4268 168.36 12.4401C168.92 13.4535 169.267 14.6535 169.4 16.0401C169.56 17.4268 169.614 18.9335 169.56 20.5601H158.76ZM179.2 11.6001H179.28C179.814 10.7201 180.48 10.0935 181.28 9.72013C182.027 9.3468 182.947 9.16013 184.04 9.16013C184.707 9.16013 185.347 9.2668 185.96 9.48013C186.574 9.6668 187.107 9.9468 187.56 10.3201C188.014 10.6935 188.374 11.1601 188.64 11.7201C188.934 12.2535 189.08 12.8668 189.08 13.5601V29.7601H183.44V15.8401C183.44 14.9335 183.307 14.1735 183.04 13.5601C182.8 12.9468 182.227 12.6401 181.32 12.6401C180.414 12.6401 179.827 12.9468 179.56 13.5601C179.32 14.1735 179.2 14.9335 179.2 15.8401V29.7601H173.56V9.56013H179.2V11.6001ZM191.28 9.56013H193.56V6.36013L199.2 3.84013V9.56013H202.12V13.0401H199.2V23.8401C199.2 24.2135 199.2 24.5601 199.2 24.8801C199.227 25.2001 199.294 25.4668 199.4 25.6801C199.507 25.8935 199.68 26.0668 199.92 26.2001C200.187 26.3068 200.547 26.3601 201 26.3601C201.187 26.3601 201.36 26.3601 201.52 26.3601C201.707 26.3601 201.867 26.3335 202 26.2801V29.7601C201.627 29.8135 201.214 29.8535 200.76 29.8801C200.334 29.9335 199.774 29.9601 199.08 29.9601C197.854 29.9601 196.88 29.7868 196.16 29.4401C195.44 29.0935 194.88 28.6801 194.48 28.2001C194.107 27.7201 193.854 27.2268 193.72 26.7201C193.614 26.2135 193.56 25.8001 193.56 25.4801V13.0401H191.28V9.56013Z" fill="#D25917"/>
</svg>
