<?xml version="1.0" encoding="UTF-8"?>
<svg xmlns="http://www.w3.org/2000/svg" width="494" height="217" viewBox="0 0 494 217" fill="none">
  <path d="M307.662 0.314453L245.222 147.844C239.632 161.074 228.572 159.504 208.042 159.504H201.842L211.902 135.664H183.902L149.902 216.094H256.572C264.179 216.095 271.618 213.854 277.958 209.652C284.299 205.449 289.26 199.471 292.222 192.464L373.502 0.314453H307.662Z" fill="#003DA7"></path>
  <path d="M157.672 0.234375H91.7319L0.421875 216.064H126.052L149.992 159.474H90.3219L157.672 0.234375Z" fill="#003DA7"></path>
  <path d="M467.941 0.234375H397.361L306.051 216.064H351.151L413.851 67.8744L422.131 159.554H393.761L382.721 185.664H424.491L427.231 216.064H493.171L467.941 0.234375Z" fill="#003DA7"></path>
</svg>
