<svg width="35" height="19" viewBox="0 0 35 19" fill="none" xmlns="http://www.w3.org/2000/svg">
<path d="M34.86 0.953385C34.6825 0.577645 34.3428 0.279057 33.9153 0.123017C33.705 0.0442232 33.4791 0.00242958 33.2505 0H24.503C24.039 0 23.5941 0.162009 23.266 0.450388C22.9379 0.738766 22.7535 1.12989 22.7535 1.53772C22.7535 1.94555 22.9379 2.33667 23.266 2.62505C23.5941 2.91343 24.039 3.07544 24.503 3.07544H29.0342L19.2546 11.6713L13.4987 6.59681C13.3361 6.45268 13.1426 6.33829 12.9294 6.26022C12.7162 6.18215 12.4875 6.14196 12.2566 6.14196C12.0256 6.14196 11.797 6.18215 11.5838 6.26022C11.3706 6.33829 11.1771 6.45268 11.0145 6.59681L0.517497 15.8231C0.35352 15.9661 0.223368 16.1361 0.134548 16.3235C0.0457287 16.5109 0 16.7119 0 16.9149C0 17.1179 0.0457287 17.3189 0.134548 17.5063C0.223368 17.6937 0.35352 17.8637 0.517497 18.0067C0.680135 18.1508 0.873631 18.2652 1.08682 18.3433C1.30001 18.4213 1.52868 18.4615 1.75964 18.4615C1.99059 18.4615 2.21926 18.4213 2.43245 18.3433C2.64564 18.2652 2.83914 18.1508 3.00178 18.0067L12.2566 9.85678L18.0124 14.9312C18.1751 15.0754 18.3686 15.1898 18.5818 15.2678C18.7949 15.3459 19.0236 15.3861 19.2546 15.3861C19.4855 15.3861 19.7142 15.3459 19.9274 15.2678C20.1406 15.1898 20.3341 15.0754 20.4967 14.9312L31.501 5.24362V9.22631C31.501 9.63414 31.6853 10.0253 32.0134 10.3136C32.3415 10.602 32.7865 10.764 33.2505 10.764C33.7145 10.764 34.1595 10.602 34.4876 10.3136C34.8157 10.0253 35 9.63414 35 9.22631V1.53772C34.9972 1.33677 34.9497 1.13825 34.86 0.953385Z" fill="white"/>
</svg>
