<svg width="22" height="22" viewBox="0 0 22 22" fill="none" xmlns="http://www.w3.org/2000/svg">
<path d="M16.9101 16.7327L16.4017 15.8716L16.9101 16.7327ZM17.3607 15.9434L16.3607 15.9434V15.9434H17.3607ZM10.0518 19.6199L9.51536 20.4638L10.0518 19.6199ZM11.9675 19.6513L12.476 20.5124L11.9675 19.6513ZM1.74543 7.45873L1.2335 6.5997L1.74543 7.45873ZM1.74543 8.24617L1.2335 9.1052L1.74543 8.24617ZM11.4693 13.4817L11.9812 14.3407L11.4693 13.4817ZM10.5307 13.4817L11.0427 12.6227L10.5307 13.4817ZM20.2546 7.45873L20.7665 6.5997L20.2546 7.45873ZM20.2546 8.24617L19.7427 7.38714V7.38714L20.2546 8.24617ZM5.51612 16.7368L6.05257 15.8928L5.51612 16.7368ZM11.4693 2.22322L10.9573 3.08225L11.4693 2.22322ZM10.5307 2.22322L11.0427 3.08225L10.5307 2.22322ZM21.35 7.83719C21.35 7.28491 20.9023 6.83719 20.35 6.83719C19.7977 6.83719 19.35 7.28491 19.35 7.83719H21.35ZM19.35 12.7872C19.35 13.3395 19.7977 13.7872 20.35 13.7872C20.9023 13.7872 21.35 13.3395 21.35 12.7872H19.35ZM10.9573 3.08225L19.7427 8.31776L20.7665 6.5997L11.9812 1.36419L10.9573 3.08225ZM19.7427 7.38714L10.9574 12.6227L11.9812 14.3407L20.7665 9.1052L19.7427 7.38714ZM2.25736 8.31776L11.0427 3.08225L10.0188 1.36419L1.2335 6.5997L2.25736 8.31776ZM11.0427 12.6227L5.60313 9.38102L4.57928 11.0991L10.0188 14.3407L11.0427 12.6227ZM5.60313 9.38102L2.25736 7.38715L1.2335 9.1052L4.57928 11.0991L5.60313 9.38102ZM4.0912 10.24V15.9631H6.0912V10.24H4.0912ZM4.97967 17.5807L9.51536 20.4638L10.5883 18.776L6.05257 15.8928L4.97967 17.5807ZM12.476 20.5124L17.4186 17.5938L16.4017 15.8716L11.459 18.7902L12.476 20.5124ZM18.3607 15.9434L18.3607 10.2401L16.3607 10.24L16.3607 15.9434L18.3607 15.9434ZM17.4186 17.5938C18.0025 17.249 18.3607 16.6214 18.3607 15.9434H16.3607C16.3607 15.9139 16.3763 15.8866 16.4017 15.8716L17.4186 17.5938ZM9.51536 20.4638C10.4146 21.0354 11.5585 21.0542 12.476 20.5124L11.459 18.7902C11.1892 18.9496 10.8527 18.9441 10.5883 18.776L9.51536 20.4638ZM1.2335 6.5997C0.284469 7.16527 0.284474 8.53964 1.2335 9.1052L2.25736 7.38715C2.60985 7.59721 2.60985 8.10769 2.25736 8.31776L1.2335 6.5997ZM10.9574 12.6227C10.9836 12.607 11.0164 12.607 11.0427 12.6227L10.0188 14.3407C10.6233 14.701 11.3767 14.701 11.9812 14.3407L10.9574 12.6227ZM19.7427 8.31776C19.3902 8.10769 19.3902 7.59721 19.7427 7.38714L20.7665 9.1052C21.7156 8.53964 21.7156 7.16527 20.7665 6.5997L19.7427 8.31776ZM4.0912 15.9631C4.0912 16.6188 4.42635 17.229 4.97967 17.5807L6.05257 15.8928C6.07663 15.9081 6.0912 15.9346 6.0912 15.9631H4.0912ZM11.9812 1.36419C11.3767 1.00393 10.6233 1.00393 10.0188 1.36419L11.0427 3.08225C11.0164 3.09791 10.9836 3.09791 10.9573 3.08225L11.9812 1.36419ZM19.35 7.83719V12.7872H21.35V7.83719H19.35Z" fill="#D25917"/>
</svg>
