<svg width="97" height="87" viewBox="0 0 97 87" fill="none" xmlns="http://www.w3.org/2000/svg">
<g id="Group 21">
<path id="Vector" d="M48.3319 63.7999C56.8739 63.7999 63.7986 56.8752 63.7986 48.3332C63.7986 39.7912 56.8739 32.8666 48.3319 32.8666C39.7899 32.8666 32.8652 39.7912 32.8652 48.3332C32.8652 56.8752 39.7899 63.7999 48.3319 63.7999Z" fill="#011F35"/>
<path id="Vector_2" d="M33.8333 0L24.9883 9.66667H9.66667C4.35 9.66667 0 14.0167 0 19.3333V77.3333C0 82.65 4.35 87 9.66667 87H87C92.3167 87 96.6667 82.65 96.6667 77.3333V19.3333C96.6667 14.0167 92.3167 9.66667 87 9.66667H71.6783L62.8333 0H33.8333ZM48.3333 72.5C34.9933 72.5 24.1667 61.6733 24.1667 48.3333C24.1667 34.9933 34.9933 24.1667 48.3333 24.1667C61.6733 24.1667 72.5 34.9933 72.5 48.3333C72.5 61.6733 61.6733 72.5 48.3333 72.5Z" fill="#011F35"/>
</g>
</svg>
