<?xml version="1.0" encoding="utf-8"?>
<!-- Generator: Adobe Illustrator 24.3.0, SVG Export Plug-In . SVG Version: 6.00 Build 0)  -->
<svg version="1.1" id="Layer_1" xmlns="http://www.w3.org/2000/svg" xmlns:xlink="http://www.w3.org/1999/xlink" x="0px" y="0px"
	 viewBox="0 0 281.8 199" style="enable-background:new 0 0 281.8 199;" xml:space="preserve">
<style type="text/css">
	.st0{fill:#0000FF;}
	.st1{clip-path:url(#SVGID_2_);fill-rule:evenodd;clip-rule:evenodd;fill:#0033DD;}
</style>
<g>
	<path class="st0" d="M87.9,149.5c0,2.3-0.9,3.2-2.7,3.2s-2.7-1.1-2.7-3.2V127h-5v22.2c0,5,3,7.9,7.7,7.9s7.7-2.7,7.7-7.9V127h-5
		V149.5z M53.4,141.1c2.3-0.9,3.4-3.6,3.4-6.4c0-5-2.5-7.9-7.9-7.9h-7.5v29.7h8.2c5.9,0,7.9-3.6,7.9-8.6
		C57.5,144.3,55.9,142.3,53.4,141.1 M46.4,131.1h1.8c2.3,0,3.4,1.4,3.4,4.3c0.2,1.9-1.2,3.6-3.1,3.8c-0.1,0-0.2,0-0.3,0h-1.8V131.1z
		 M48.6,152.5h-2.3v-9.1h1.8c2.9,0,4.3,1.6,4.3,4.5C52.3,150.9,51.4,152.5,48.6,152.5 M102.7,143.6h6.6v-4.5h-6.6v-7.7h8.6v-4.5
		H97.7v29.7h14.1V152h-9.1V143.6z M66.8,127h-5.2v29.7h13.2v-4.5h-7.9V127z M196.9,156.8h5V127h-5V156.8z M184.6,126.6
		c-5.4,0-7.7,3.4-7.7,7.5v15.2c0,4.3,2.5,7.5,7.7,7.5c1.8-0.1,3.6-0.7,5-1.8l2.7,1.8v-15h-8.4v4.1h3.6v3.6c0,3.4-2.7,3.2-2.7,3.2
		h-0.2c-2,0-2.7-1.1-2.7-3.4v-15c0-2.3,0.7-3.4,2.7-3.4s2.7,1.1,2.7,3.4v2.3h5v-2.5C192.6,130,190.1,126.6,184.6,126.6 M133.8,126.6
		c-5.4,0-7.7,3.4-7.7,7.5v15.2c0,4.3,2.5,7.5,7.7,7.5c5.2,0,7.7-3.4,7.7-7.5v-15.2C141.5,130,139,126.6,133.8,126.6 M136.5,149.3
		c0,2.3-0.7,3.4-2.7,3.4c-2,0-2.7-1.1-2.7-3.4v-15c0-2.3,0.7-3.4,2.7-3.4c2,0,2.7,1.1,2.7,3.4V149.3z M218.4,127v17.7l-7-17.7h-4.5
		v29.7h4.5v-17.7l7,17.7h4.5V127H218.4z M166.9,156.8h5V127h-5V156.8z M161.9,135.7c0-6.4-2.9-8.9-8.6-8.9H146v29.7h5v-12h2.5
		l3.6,12.3h5.2l-4.3-13.4C159.9,142.5,161.9,140.4,161.9,135.7 M152.8,140.4H151v-9.3h1.8c2.7,0,3.9,0.9,3.9,4.5
		S155.8,140.4,152.8,140.4"/>
</g>
<g>
	<defs>
		<rect id="SVGID_1_" x="65.8" y="37.2" width="132.7" height="67.6"/>
	</defs>
	<clipPath id="SVGID_2_">
		<use xlink:href="#SVGID_1_"  style="overflow:visible;"/>
	</clipPath>
	<path class="st1" d="M198.5,53v-0.8v-0.3l-0.5,0.2l0.3-0.3l-0.1,0.1l0.3-0.4c0,0,0-0.1,0,0c-0.2,0.1-0.4,0.2-0.6,0.2
		c0,0,0.4-0.3,0.7-0.5h-0.3c0,0,0,0,0-0.1c0,0,0,0,0-0.1l0.3-0.2c0.1,0,0.1-0.1,0.1-0.2l-0.1-1.2l-0.1-0.5c0-0.1-0.1-0.2-0.2-0.3
		l-0.6-0.2c0,0-0.1,0-0.1-0.1c0,0,0-0.1,0.1-0.1h0.6c0.1,0,0.1,0,0.1-0.1l-0.1-0.5c0-0.3-0.1-0.6-0.3-0.8l-0.5-0.8l-0.1-0.1
		c0-0.1-0.1-0.1-0.2-0.1h-0.5c0,0-0.1,0-0.1,0c0,0,0,0,0-0.1c0,0,0-0.1,0-0.1c0,0-0.1,0-0.1,0H196v-0.1c0.3-0.1,0.6-0.2,1-0.3h-0.1
		c0,0-1.1-1.7-1.1-1.8l-0.9-0.9l-0.1-0.1l-0.6-0.3c-0.1-0.1-0.2-0.1-0.3,0c-0.3,0.1-0.5,0.3-0.7,0.5c0,0-0.1,0-0.1-0.1
		c0.1-0.2,0.2-0.5,0.2-0.7c0-0.2,0-0.3-0.2-0.4l-0.4-0.3l-1.2-0.7h-0.1h-0.1c-0.1-0.1-0.2-0.1-0.3,0c-0.3,0.2-0.7,0.4-1.1,0.7h-0.1
		c0.1-0.2,0.3-0.5,0.4-0.7c0,0,0-0.1-0.1,0c-0.3,0.3-0.7,0.6-0.9,0.8c-0.2,0.2-0.1,0,0,0l0.6-1.1c0,0,0-0.1,0-0.1c0,0,0,0-0.1,0
		l-0.7-0.3h-0.1l-0.2-0.2c0,0-0.1,0-0.1,0c-0.1,0-0.1,0-0.2,0c-0.5,0-0.7,0.9-0.9,1.3c0,0.1-0.1,0.2-0.2,0.3
		c-0.6,0.8-1.2,1.6-1.7,2.4c0,0-0.1,0-0.1,0c0,0-0.1-0.1-0.1-0.1l1.7-4c0-0.1,0-0.2,0-0.3c0-0.1-0.1-0.2-0.2-0.2h-0.1
		c-0.1,0-0.2,0-0.3,0h-0.1c-0.1,0-0.2,0-0.3,0l-0.3-0.1c0,0-0.1,0-0.1,0c-2,2.8-3.4,5.8-4.2,9.1c0,0.1-0.1,0-0.1,0
		c0.8-5,1.7-9.2,1.9-10c0,0,0-0.1,0,0v0.1c-0.5,1.4-0.9,2.7-1.2,4.2c-0.3,1.2,0.4-3.1,0.6-4.3c0-0.1,0-0.1,0-0.2
		c0-0.1-0.1-0.1-0.1-0.1c-0.1,0-0.1,0-0.2,0s-0.1,0.1-0.1,0.1c-0.1,0-0.1,0-0.2,0.1c-0.1,0.3-0.2,0.6-0.4,1c0-0.3,0-0.5,0-0.8
		c0-0.1-0.1-0.3-0.2-0.4c-0.1-0.1-0.2-0.2-0.4-0.2H181c0,0-0.1,0-0.1,0c0,0-0.1,0.1-0.1,0.1c-0.3,1.1-0.8,3.2-1.8,7
		c0,0.1-0.1,0.1-0.1,0.1c-0.1,0-0.1,0-0.1-0.1c0.3-2.5,0.2-5-0.2-7.4c0-0.1-0.1-0.2-0.2-0.2H178h-0.4c-0.1,0-0.1,0-0.1,0.1
		c-0.1,0.9-0.2,2.7-0.7,5.3c0,0,0,0.1-0.1,0.1c0,0-0.1,0-0.1-0.1c0.1-1.8,0.1-4,0.1-5c0-0.1,0-0.1-0.1-0.2c-0.1-0.1-0.1-0.1-0.2-0.1
		l-1.6,0.4c-0.1,0-0.3,0.1-0.3,0.2c-1.1,2-2,6-2.7,9.4c0,0.1-0.1,0-0.1,0c0.4-3,1-6,2-8.9c0.1-0.1,0.1-0.1,0-0.2
		c-0.1-0.1-0.1-0.1-0.2,0l-0.7,0.4l-0.4,0.3c-0.2,0.2-0.4,0.4-0.6,0.7c-0.7,2-1.3,4-1.8,6c0,0.1,0,0.1-0.1,0.1c-0.1,0-0.1,0-0.1-0.1
		c0.2-2,0.7-3.9,1.4-5.7l-1.4,1.2l-2.1,2c-0.2,0.2-0.3,0.4-0.4,0.6l-0.4,0.8c0,0,0,0-0.1,0s-0.1,0-0.1,0v-0.2c0,0,0-0.1,0-0.1
		c0.1-0.3,0.1-0.6,0.2-0.9c0-0.1,0-0.1,0-0.2c0.1-0.2,0.2-0.5,0.3-0.7l-0.2,0.1c-0.1,0.2-0.2,0.4-0.3,0.6l0.1-0.4l-0.3,0.3
		c-0.1,0.2-0.1,0.4-0.2,0.6h-0.1v-0.3c-0.2,0.2-0.3,0.3-0.4,0.5c-0.1,0.4-0.2,0.8-0.3,1.2c-0.1,0.2-0.2,0.4-0.3,0.7v0.1
		c-0.2,0.9-0.5,1.9-0.7,2.8c-0.1,0.3-0.2,0.7-0.2,1c0,0,0,0.1-0.1,0.1c0,0,0,0.1,0,0.1v0.1c-0.1,0.1-0.1,0.2-0.2,0.3v0.1
		c0,0.1-0.1,0.1-0.1,0.1c-0.1,0-0.1,0-0.1-0.1l-0.3-0.6c-0.1-0.2-0.3-0.3-0.5-0.4c-0.2,0-0.3-0.1-0.4-0.2c0,0,0,0-0.1,0
		c0,0,0,0-0.1,0c0,0.2-0.1,0.4-0.2,0.6l-0.3,0.5l-0.3,0.6l-0.1,0.2v0.1v-0.3l-0.7,2c-0.1,0-0.1,0-0.1-0.2c0-0.2,0.1-0.5,0.2-0.8
		c0,0,0-0.1,0-0.1c0,0-0.1,0-0.1,0c-0.3,0.2-0.4,0.4-0.5,0.8l-0.1,0.3c0,0,0,0-0.1,0c0,0-0.1,0-0.1,0c0,0,0-0.1-0.1,0c0,0,0,0,0,0.1
		c-0.1,0.3-0.1,0.3-0.2,0.7l-0.2,0.3c-0.1,0.2-0.1,0.4-0.1,0.5l-0.1,0.4h-0.1v-0.1v-0.1c0,0-0.1,0-0.1,0v0.1c-0.4,0.5-0.7,1-1,1.6
		c0,0,0,0-0.1,0c0,0-0.1,0-0.1,0c0,0,0,0,0-0.1V56c0.2-0.8,0.4-1.5,0.5-2.3c0.1-0.2,0.2-0.4,0.2-0.6c0.1-0.6,0.7-2.3,0.7-2.3
		c0.5-1.6,0.5-2.1,0.4-2.2c-0.2-0.1-0.6,0.4-0.8,0.8c-1.2,2.3-3.2,4.2-6.4,6.3l-0.2,0.1l-2,0.8c-2.6,1.5-5.2,2.8-5.3,2.9
		c-0.9,0.4-1.7,1.1-2.4,1.8c-0.1,0.2-0.3,0.4-0.4,0.7c0,0,0,0.1,0,0.1c-0.4,0.7-0.7,1.5-1.1,2.2c-0.2,0.3-0.2,0.6-0.4,0.9
		c-0.2,0.3-0.4,0.9-0.6,1.4c-0.5,1-1,2-1.4,3c-0.3,0.7-0.5,1.4-0.7,2.2c0,0.1-0.1,0.3-0.2,0.4c-0.1,0.6-0.3,1.2-0.5,1.8
		c0,0,0,0-0.1,0c0.1-0.3,0.1-0.5,0.2-0.8c0.3-1.3,0.5-2.6,0.8-3.9c0.1-0.5,0.4-1.1,0.5-1.6c0.1-0.5,0.1-0.9,0.3-1.4l0.2-0.6
		c0.3-0.5,0.5-1.1,0.8-1.6c0.3-0.5,0.5-0.7,0.7-1.1c0.1-0.3,0.2-0.7,0.3-1c0,0,0-0.1,0-0.1c0,0-0.1,0-0.1,0
		c-0.2,0.1-0.4,0.3-0.6,0.5c-0.2,0.1-0.4,0.3-0.6,0.4l-0.2,0.1c-1,0.7-2.1,1.4-3.2,2c-0.8,0.4-1.5,1-2.2,1.6l-0.2,0.2
		c-0.4,0.3-0.8,0.7-1.1,1.1c-0.5,0.7-1,1.5-1.4,2.3c-0.2,0.3-0.3,0.7-0.5,1c0,0.1,0,0.2-0.1,0.3c-0.1,0.3-0.3,0.6-0.3,0.9
		c-0.1,0.1-0.1,0.2-0.2,0.3c-0.2,0.7-0.4,1.4-0.6,2.2c-0.3,1.6-0.6,3.1-1,4.7c-0.2,0.8-0.5,1.6-0.7,2.4c-0.1,0.4-0.3,0.8-0.5,1.2
		c-0.1,0.2-0.2,0.4-0.2,0.6c-0.3,0.6-0.6,1.1-1,1.7c-0.1,0.2-0.3,0.3-0.4,0.5c-0.1,0.1-0.3,0.2-0.3,0.3c0,0-0.1,0-0.1-0.1
		c0.1-0.5,0.5-1,0.6-1.5c0.2-0.9,0.5-1.8,0.6-2.7c0.2-1.3,0.1-2.7,0.2-4c0.1-2.3,0.3-4.6,0.7-6.9c0.2-1,0.5-1.9,1-2.8
		c0.2-0.3,0.2-0.6,0.4-0.9c0.2-0.3,0.4-0.8,0.6-1.2l0.1-0.1v-0.2c0,0,0-0.1,0-0.1v-0.1c0,0-0.1-0.2-0.2-0.2
		c-0.1,0.1-0.1,0.2-0.2,0.2c0,0-0.1,0-0.1,0c0,0-0.5,0.6-0.6,0.7l-0.1,0.1v0.1c-0.2,0.2-0.4,0.3-0.5,0.5c-0.1,0.2-0.4,0.7-0.6,1
		c0,0,0,0-0.1,0c0,0,0,0,0-0.1c0,0,0,0,0-0.1c0-0.1,0-0.3,0.1-0.4h-0.1v0.1c-0.1,0.1-0.1,0.1-0.2,0.2c-0.3,0.2-0.7,1-0.8,1.2
		c-0.1,0.1-0.2,0.3-0.4,0.4l-0.3,0.8l-0.1,0.1v-0.1L126,69c0,0,0,0,0-0.1c0,0,0,0-0.1,0c-1,0.3-2,0.8-2.9,1.4c0,0-0.1,0,0-0.1
		c0.1-0.1,0.2-0.3,0.3-0.4c-0.2,0.1-0.4,0.2-0.6,0.4l-1.2,0.8c-0.1,0-0.1,0-0.2,0c-0.1,0.2-0.3,0.3-0.4,0.5
		c-0.1,0.1-0.2,0.2-0.3,0.2c-0.1,0.1-0.2,0.1-0.3,0.2l-1.2,1.3c-0.5,0.6-1,1.2-1.4,1.9c-0.2,0.3-0.3,0.6-0.4,0.9l-0.1,0.2
		c0,0.1-0.1,0.1-0.1,0.1c-0.1,0-0.1,0-0.1,0c0,0-0.1-0.1,0-0.1v-0.4c0.1-0.6,0.4-1.1,0.8-1.6l0.1-0.2l0.2-0.3v-0.1h-0.3
		c-0.1,0-0.2,0-0.3,0.1L117,74c-0.2,0.1-0.4,0.2-0.5,0.4c-0.2,0.3-0.4,0.6-0.6,0.9c-0.2,0.3-0.2,0.7-0.4,1c-0.1,0.1-0.2,0.1-0.2,0.2
		c-0.1,0.1-0.2,0.4-0.3,0.5c-0.1,0.2-0.3,0.3-0.4,0.4c-0.1,0.2-0.2,0.6-0.4,0.8c-0.6,1.1-0.9,2.3-1,3.5v0.6c0,0.2-0.1,0.5-0.1,0.7
		v4.7v1.2c0,0.1,0,0.1-0.1,0.1s-0.1,0-0.1-0.1c0-0.6-0.2-1.3-0.3-1.9c-0.1-0.4-0.2-0.7-0.3-1.2c-0.1-0.8-0.3-1.6-0.4-2.4
		c-0.1-0.5-0.2-0.9-0.2-1.4c0-1.9,0.1-3.9,0.3-5.8c0-0.3,0-0.7,0-1l-0.1-0.5v-0.7c0-0.3,0-0.6,0-0.9h-0.1c-0.1,0.2-0.2,0.5-0.2,0.7
		c-0.1,0.3,0,0.5,0,0.5s-0.1,0.1-0.1,0.1v-0.2h-0.1c-0.1,0.2-0.2,0.3-0.3,0.5v0.1c0,0.1-0.1,0.1-0.2,0.2c-0.1,0.1-0.2,0.3-0.3,0.5
		l-0.1,0.1c-0.1,0.1-0.1,0.2-0.2,0.3h-0.1v-0.1c0.1-0.2,0.1-0.3,0.2-0.5c0-0.3,0.1-0.6,0.2-0.9c0-0.1,0-0.3,0-0.4
		c-0.3,0.4-0.5,0.9-0.7,1.4c-0.1,0.2-0.2,0.3-0.3,0.5c-0.1,0.3-0.1,0.6-0.2,0.8c-0.1,0.2-0.3,0.3-0.4,0.4c-0.1,0.2-0.4,0.6-0.5,0.8
		c-0.7,1.2-1.1,2.5-1.3,3.8c-0.1,0.5-0.1,1-0.1,1.5c0,0.2,0,0.3,0,0.5c0-0.1-0.1-0.2-0.1-0.3c-0.1-0.3-0.2-0.6-0.3-1
		c-0.2-1-0.4-1.9-0.5-2.8c0-0.1-0.1-0.2-0.2-0.3c-0.1-0.2-0.1-0.4-0.1-0.6c0,0,0-0.1-0.1-0.1c0,0-0.1,0-0.1,0c0,0.1,0,0.2-0.1,0.3
		h-0.1c0,0,0,0-0.1,0c0,0,0,0-0.1,0c-0.1,0.2-0.2,0.4-0.2,0.6c0,0.1,0,0.2,0,0.3c0,0.1,0,0.3-0.1,0.4c0,0,0,0-0.1,0c0,0-0.1,0-0.1,0
		c0,0.1-0.1,0.1-0.1,0.2c-0.1-0.2-0.1-0.4-0.2-0.6c0,0,0-0.1-0.1-0.1c0,0-0.1,0-0.1,0.1v0.5v1.9c0,1.3,0.1,2.6,0.1,3.9
		c0,0.9,0.2,1.7,0.3,2.5c0.1,0.9,0.2,1.3,0.2,2c0,0.3,0,0.5,0.1,0.8c-0.1-0.3-0.2-0.6-0.3-0.9l-0.7-2c-0.2-0.3-0.3-0.7-0.4-1.1
		c-0.1-0.3-0.3-0.6-0.3-0.8l-0.2-0.4c-0.2-0.4-0.3-0.7-0.4-1.1l-0.3-0.6c-0.1-0.7-0.6-1.2-0.7-1.9c-0.1-0.4-0.3-0.7-0.5-1.1
		c-0.2-0.4-0.4-0.8-0.6-1.2c-0.1-0.1-0.1-0.3-0.3-0.5l-0.2-0.1c0-0.1-0.1-0.1-0.1-0.1c-0.1,0-0.1,0.1-0.1,0.1c0,0.2,0,0.5,0,0.7
		c0,0,0,0.1,0,0.1c0,0,0,0.1,0,0.1v1.3c0,0,0,0.1-0.1,0.1c0,0-0.1,0-0.1-0.1l-0.1-0.2c0,0,0,0-0.1,0c0,0-0.1,0-0.1,0
		c-0.1,0.4-0.1,0.7-0.1,1.1c-0.1,0.3-0.1,0.6-0.2,0.8c0,0.6,0.1,1.2,0.3,1.8c0,0.2,0.1,0.4,0.2,0.5c0.1,0.6,0.4,1.3,0.5,1.9l0.2,0.6
		c0.1,0.4,0.3,0.7,0.4,1.1c0.1,0.4,0.3,0.6,0.3,0.9c0.1,0.3,0.2,0.5,0.3,0.7c0,0.3,0.2,0.5,0.3,0.7c0.1,0.4,0.3,0.8,0.4,1.2
		c0,0,0,0.1,0,0.1c0,0,0,0-0.1,0c-0.2,0.1-0.4-0.3-0.6-0.5c-0.5-0.5-1-1.1-1.6-1.6c-0.6-0.6-1.2-1.1-1.8-1.5l-0.7-0.3h-0.1
		c-0.2-0.1-0.4-0.3-0.6-0.5l-0.4-0.1c-0.3-0.2-0.6-0.5-0.9-0.6h-0.3c-0.1,0-0.5-0.2-0.7-0.2c-0.1,0-0.1,0-0.2,0
		c-0.1,0-0.1,0-0.1,0.1c0,0,0,0.1,0,0.1c0,0.4,0.3,0.4,0.5,0.6c0.3,0.2,0.1,0.2,0.2,0.2c0,0-0.1,0-0.1,0.1c0,0,0,0.1,0,0.1
		c0.6,0.8,1.4,1.3,2,2c0.3,0.3,0.5,0.6,0.7,0.9l0.4,0.8l0.4,0.6c0.1,0.2,0,0.3,0,0.4c0,0.1,0.1,0.2,0.2,0.3
		c-0.3,0.1-0.6,0.1-0.8,0.2c-0.4,0.1-0.9,0.3-1.3,0.3c-0.8,0.1-1.5,0.4-2.3,0.6c-0.5,0.1-0.8,0.3-1.3,0.4c-1.5,0.3-3.1,0.8-4.6,1.1
		c-0.2,0-0.3,0.1-0.6,0.2c-0.9,0.2-1.8,0.5-2.7,0.7c-0.9,0.1-1.7,0.4-2.5,0.6c-2.1,0.3-4.1,1-6.2,1.4c-0.2,0-0.3,0.1-0.4,0.1
		c-0.8,0.1-1.6,0.4-2.4,0.5l-0.7,0.2c-1.2,0.2-2.6,0.8-3.8,1c-0.5,0.1-1,0.3-1.4,0.4l-0.6,0.2c-0.8,0.2-1.1,0.6-1.1,1.2
		c0.2,1.2,1.3,0.8,2,0.7c1.3-0.1,2.7-0.4,4-0.6c0.7-0.1,1.2-0.3,1.9-0.4c1.8-0.3,3.6-0.8,5.4-1.1c0.7-0.1,1.3-0.4,2-0.5l0.6-0.2
		c0.7-0.1,1.5-0.4,2.2-0.5l0.9-0.2c1-0.2,2-0.5,3-0.7l1-0.3c1.1-0.2,2.2-0.6,3.4-0.8l1.2-0.3c1.6-0.3,3.2-1,4.8-1.2
		c0.8-0.3,1.5-0.4,2.3-0.6c0.1,0,0.2,0.1,0.2,0.1c0,0,0,0.1,0,0.1c0,0,0.1,0,0.1,0h0.1c0,0,0.1,0.4,0.2,0.4v-0.2c0-0.1,0-0.2,0-0.3
		h0.1h0.1c0.1,0.2,0.2,0.4,0.3,0.6c0,0.1,0.1,0.1,0.1,0.2c0-0.3,0-0.6-0.1-0.9c0,0,0-0.1,0.1-0.1h0.1c0,0.1,0.1,0.1,0.1,0.2l0.2,0.6
		c0.1,0.4,0.2,0.9,0.2,1.3c0.1,0.4,0.2,0.2,0.2,0.5c0,0.2,0,0.5,0,0.7c0,0.2,0,0.3,0,0.5l0.1-0.1h0.1c0,0,0,0.1,0,0.1
		c0,0.2,0.1,0.5,0,0.8h0.1c0.1-0.1,0.1-0.3,0.2-0.4c0.1,0.3,0.1,0.5,0.1,0.8c0,0,0,0.1,0.1,0c0.1-0.1,0.2-0.3,0.2-0.4
		c0,0.1,0.1,0.1,0.1,0.1c0.1,0,0.2-0.4,0.3-0.5h0.1c0.2-0.4,0.3-0.9,0.4-1.3c0-0.1,0-0.1,0-0.2c0-0.1,0-0.1,0-0.2v-0.1
		c0-0.1,0.1-0.2,0.1-0.3c0-0.1,0.1-0.3,0.2-0.4c0.1-0.8,0.2-1.6,0-2.4c0,0,0-0.1,0-0.1c0,0,0.1,0,0.1,0c0.1,0.2,0.2,0.4,0.3,0.6
		c0.3,0.5,0.5,1,0.9,1.4c0.5,0.7,1,1.4,1.5,2c0.2,0.2,0.3,0.5,0.5,0.8l0.2,0.4c0.4,0.5,0.6,1.2,1,1.8l0.3,0.5
		c0.2,0.3,0.5,0.6,0.7,0.8c0,0,0.1,0,0.1,0c0,0,0.1,0,0.1,0c0,0,0,0,0-0.1c0,0,0,0,0-0.1c0.1,0.1,0.2,0.3,0.3,0.4
		c0.2,0.1,0.3,0.3,0.5,0.3c0,0.1,0.1,0.1,0.2,0.1c0.1,0,0.1-0.1,0.1-0.2c-0.2-0.5-0.4-0.9-0.6-1.4c0-0.1-0.1-0.2-0.1-0.2
		c-0.1-0.2-0.2-0.5-0.2-0.7c-0.1-0.4-0.5-0.8-0.6-1.1c-0.1-0.6-0.3-1.1-0.6-1.6c-0.1-0.1-0.1-0.3-0.2-0.5c-0.1-0.1,0-0.1,0,0
		c0,0.1,0.2,0.2,0.3,0.2c0.1,0,0.3,0.1,0.4,0.1c0,0,0.1,0,0.1,0c0,0,0-0.1,0-0.1c-0.2-0.1-0.3-0.2-0.5-0.3c-0.1-0.1-0.5-0.4-0.6-0.6
		c0-0.1-0.1-0.2-0.1-0.3l-0.1-0.2l0.2,0.2c0.6,0.5,1.2,0.9,1.8,1.3c0.2,0.1,0.9,0.6,1.1,0.3c0.1,0.1,0.4,0.1,0.5,0
		c0.1,0.1,0.3,0.1,0.4,0.1c0.2,0.1,0.2,0.1,0.3,0.2h0.1c0.1,0,0.2,0,0.2-0.1c0-0.1,0-0.2-0.1-0.2c-0.3-0.2-0.7-0.3-1-0.5
		c-0.1,0-0.1-0.1-0.1-0.1c0,0-0.1-0.1-0.1-0.1s0-0.1,0.1-0.1c0,0,0.1,0,0.1,0h0.1c0.3,0.1,0.5,0.2,0.7,0.4c0.5,0.3,0.9,0.4,1.5,0.5
		c0.6,0,1.2-0.1,1.8-0.3c0.1,0,0.2-0.1,0.3-0.1c0.2-0.1,0.4-0.2,0.6-0.3c0.2,0,0.1-0.3-0.1-0.2c-0.7,0-1.4-0.2-2-0.6l-0.3-0.2
		l-0.6-0.7l-1-1c-0.3-0.4-0.7-0.9-1-1.4c-0.1-0.2-0.2-0.3-0.3-0.5h0.1c0.5,0.6,1,1.2,1.6,1.8l0.3,0.3l1,0.9c2.4,1.7,7.1,0.8,7.1,0.8
		s1.9-0.3,2-0.3h0.1h0.2c0.1,0,0.1-0.1,0.1-0.1c0-0.1,0-0.1-0.1-0.1l-0.2-0.1c-0.4-0.1-0.7-0.2-1-0.3l-0.5-0.2
		c-1.3-0.6-2.5-1.3-3.6-2.3c-0.5-0.4-0.9-1-1.4-1.5l-0.2-0.2c0,0,0-0.1,0.1-0.1l1.2,1.2c1.3,1.4,2.9,2.3,4.8,2.9
		c0.3,0.1,1,0.3,1.6,0.5c0.3,0.1,0.5,0.1,0.8,0c0.3,0,0.5,0,0.8,0l0.4-0.1h0.1c0,0,0-0.1,0-0.1c0.1-0.2,0.3-0.3,0.5-0.3
		c0.4-0.1,0.9-0.1,1.4-0.1h0.3c0.1,0,0.1-0.1,0-0.1c0.2,0,0.5,0,0.7,0h0.4c0.2,0,0.5,0,0.7,0c0.1,0,0.2-0.1,0.2-0.1h0.1
		c0,0,0,0,0-0.1c0,0,0-0.1,0-0.1c-0.2,0-0.4,0-0.6-0.1h-0.5c-0.5-0.1-0.9-0.2-1.4-0.3c-0.8-0.2-1.6-0.4-2.3-0.7l-0.6-0.2
		c-0.3-0.2-0.6-0.3-0.9-0.5c-0.6-0.3-1.1-0.7-1.6-1.1l-0.1-0.1c0-0.1,0-0.1,0-0.2c0,0,0.1,0,0.1,0c0,0,0.1,0,0.1,0l0.7,0.5
		c1.1,0.6,2.3,1,3.6,1.2c0.6,0.2,1.2,0.3,1.8,0.5c0.5,0.1,1,0.1,1.4,0c0.2,0,0.5-0.1,0.7-0.1c0.1,0,0.2,0,0.3-0.1h0.1v-0.1v-0.1
		c0.3-0.1,0.7-0.2,1-0.3c0.2-0.2,0.4-0.4,0.7-0.5c0.2,0,0.4-0.1,0.6-0.2h0.2h0.1l0.5-0.2c0,0,0,0,0-0.1s0-0.1,0-0.1l-0.5-0.2h-0.1
		l-0.2,0.1c-0.6,0-1.2,0-1.8-0.3l-0.4-0.1l-0.3-0.1l-1.1-0.6c-0.6-0.3-1.1-0.6-1.4-0.7c0,0,0-0.1,0-0.1c0,0,0-0.1,0-0.1
		c0,0,0.1,0,0.1,0c1.3,0.6,2.6,1.1,4.1,1.3l1.6,0.4c0,0,1.2,0.2,2.8,0.7c1.1,0.3,2.1,0.7,3.1,1.1c0.2,0.1,0.5,0.2,0.7,0.2l0.4,0.1
		c0,0,0-0.1,0-0.1c-0.2-0.1-0.4-0.2-0.5-0.3c-0.1-0.1-0.1-0.1-0.2-0.2c-0.1,0-0.1-0.1-0.1-0.1c0,0-0.2,0-0.2-0.1l-0.1-0.1l-0.1-0.1
		l-0.2-0.1l-0.3-0.2c0,0,0.1,0,0.1,0c0.1,0.1,0.3,0.1,0.4,0.2c0.3,0.1,0.6,0.2,0.9,0.3h0.3c-0.2-0.1-0.4-0.1-0.5-0.2
		c-0.1,0-0.2-0.1-0.3-0.2l-1-0.4c-1.6-0.6-3.3-1.3-4.8-2.1c-1.3-0.9-2.5-1.9-3.6-3l-0.3-0.2c0,0-0.1-0.1-0.1-0.1
		c0-0.1,0-0.1,0.1-0.2c0,0,0.1-0.1,0.1-0.1c0.1,0,0.1,0,0.2,0.1c1.2,0.8,2.3,1.7,3.5,2.4c0.5,0.3,1,0.4,1.4,0.6
		c1.1,0.5,2.1,0.8,3.3,1.1c0.2,0,0.4,0.1,0.7,0.1c0.1,0,0.3-0.1,0.4,0h0.1l0.7-0.4l0.8-0.5l0.2-0.2c0,0-0.1-0.1-0.1-0.1
		c0.4,0,0.7-0.1,1-0.3c0,0,0-0.1,0-0.1c0,0-0.1-0.1-0.1-0.1c-0.3,0-0.5,0-0.8-0.1c-0.2,0-0.4-0.1-0.6-0.2l-0.6-0.2
		c-1.5-0.5-2.9-1.2-4.2-2.2c-0.3-0.2-0.5-0.4-0.7-0.6c0,0,0,0,0-0.1c0,0,0,0,0.1,0c0.3,0.2,0.6,0.4,0.9,0.6c0.8,0.5,1.6,0.8,2.4,1.3
		c0.2,0.1,0.6,0.2,0.8,0.3l0.2,0.1c0.6,0.2,1.3,0.4,1.9,0.4c0.7,0,1.3,0,2-0.2c0.4-0.3,0.9-0.5,1.4-0.6c0.4-0.1,0.7-0.2,1.1-0.2
		l0.4-0.4h0.1h1.5l-0.1-0.1c0-0.1-0.1-0.1,0-0.2c0-0.1,0.1-0.1,0.1-0.2l0.2-0.2c0,0,0.1,0,0.1,0c0.1,0,0.2-0.1,0.3-0.1
		c0.3,0,1-0.3,1.3-0.3c0.3,0,1.7-0.7,1.9-0.7c0.4-0.1,0.7-0.2,1.1-0.3l0.3-0.1c0.2,0,0.4-0.1,0.6-0.2c0.1,0,0.1-0.1,0.1-0.1
		c0-0.1,0-0.1,0-0.2c0,0-0.1-0.1-0.1-0.1H155H155c0,0,0-0.1,0-0.1c0.2-0.1,0.5-0.2,0.7-0.2c0.2,0,0.4-0.3,0.6-0.3l0.3-0.1h-0.2
		l0.3-0.2l0.8-0.3l1-0.5l0.8-0.5l1.5-1.1l0.4-0.3l1.7-1.3c0.1,0,0.1-0.1,0.2-0.1c0.5-0.3,1-0.4,1.5-0.5c0.1,0,0.2-0.1,0.2-0.1
		c0.1,0,0.3,0,0.4,0c0.1,0,0.3,0,0.4,0l0.4,0.1h0.2h0.3h0.3c0.2,0,0.3-0.1,0.5-0.1c0.1,0,0.1-0.1,0.2-0.1l0.1-0.1l0.4-0.4l0.3-0.6
		l0.1-0.1c0.1-0.1,0.2-0.1,0.2-0.2l0.1-0.1c0.1-0.1,0.2-0.1,0.4-0.1c0.1,0,0.2,0.1,0.3,0.2c0.1,0.1,0.1,0,0.1-0.1
		c-0.1-0.1-0.2-0.3-0.4-0.3c-0.1-0.1-0.3-0.1-0.5-0.1h-1c0,0-0.1,0-0.1,0c0,0,0-0.1,0-0.1c0-0.1,0-0.1,0.1-0.1h0.2l0.5-0.1
		c0.6-0.1,1.1-0.3,1.5-0.7l0.1-0.1l0.9-1l0.7-0.9c0-0.1,0-0.1,0.1-0.1c0.3-0.3,0.6-0.6,0.9-1c0.2-0.1,0.4-0.2,0.5-0.2
		c0.1,0,0.2-0.1,0.2-0.2h0.1h-0.1c0.3-0.3,0.6-0.5,0.9-0.7l0.3-0.2c0.1,0,0.1-0.1,0.2-0.1c0.3-0.2,0.7-0.4,1-0.6l0.2-0.1
		c0.1-0.1,0.2-0.1,0.3-0.1c0.5-0.1,1-0.1,1.5,0l0.8,0.2h0.1c0.2,0.1,0.4,0.2,0.6,0.2h0.1c0.1,0,0.1,0,0.2,0h0.2h0.1
		c0.2-0.1-0.2-0.3-0.3-0.3l-0.4-0.2l-1.2-0.5c0,0-0.1-0.1-0.1-0.2c0-0.1,0-0.1,0-0.2c0-0.1,0.1-0.1,0.1-0.1c0,0,0.1-0.1,0.2-0.1
		c0.3-0.1,0.6-0.1,0.9-0.2c0.1,0,0.1-0.1,0.1-0.1c0-0.1,0-0.1,0-0.2c0-0.1-0.1-0.1-0.2-0.1H179c0,0-0.2,0-0.2-0.1
		c0-0.1,0.1-0.2,0.1-0.2h0.1l0.3-0.1h0.1c0.6-0.2,1.2-0.4,1.7-0.7l1.4-1l0.2-0.2l0.2-0.2l6.2-4.5l0.2-0.1c0,0,0.1,0,0.1-0.1
		c0,0,0-0.1,0-0.1c0,0-0.1,0-0.1,0h-0.2c0,0-0.1,0-0.1-0.1c0,0,0-0.1,0-0.1c0.1-0.1,0.2-0.2,0.3-0.2l1-0.7l1-0.5l0.3-0.2h0.1
		l0.5-0.3l1-0.7h0.1l0.6-0.5l0.1-0.1v-0.1c0,0-0.1,0-0.1,0c0,0,0.2-0.1,0.1-0.1c0,0-0.1,0-0.1-0.1c0,0,0-0.1,0.1-0.1l0.3-0.1h0.1
		l0.3-0.1h-0.3c0.4-0.1,0.7-0.3,1-0.5c0,0,0-0.1,0-0.1c0.3-0.2,0.5-0.5,0.8-0.8l0.2-0.4v-0.1c0,0,0,0,0-0.1c-0.1,0-0.3,0-0.4,0h0.2
		c0.2-0.1,0.5-0.2,0.6-0.4c0,0,0.3-0.4,0-0.4h-0.2h-0.1c0.2-0.1,0.3-0.2,0.4-0.3c-0.1,0-0.1,0-0.2,0.1c0.2-0.2,0.3-0.4,0.5-0.6
		c0,0,0-0.1,0-0.1H197c0-0.1,0.1-0.2,0.2-0.3h-0.1l0.1-0.1c0.1-0.2,0.2-0.3,0.5-0.4c0.3,0,0.5-0.1,0.7-0.3c0,0,0,0,0.1-0.1v-0.1
		c0.1-0.2,0.2-0.4,0.2-0.6C198.7,53.4,198.6,53.2,198.5,53"/>
</g>
</svg>
