<svg width="30" height="32" viewBox="0 0 30 32" fill="none" xmlns="http://www.w3.org/2000/svg">
<path d="M15 26.6666C13.6258 26.6666 12.3308 26.3884 11.115 25.8319C9.89917 25.2755 8.83667 24.5128 7.9275 23.5439C7.01833 22.575 6.30333 21.4417 5.7825 20.1439C5.26167 18.8461 5.00083 17.4648 5 15.9999C5 14.4888 5.26042 13.0933 5.78125 11.8133C6.30208 10.5333 7.00708 9.4177 7.89625 8.46659C8.09375 8.25325 8.33208 8.14836 8.61125 8.15192C8.89125 8.1537 9.12958 8.25992 9.32625 8.47059L15.8263 15.4039C15.9438 15.5284 16.0062 15.6813 16.0138 15.8626C16.0212 16.0439 15.9588 16.2057 15.8263 16.3479C15.6938 16.4901 15.5467 16.5613 15.385 16.5613C15.2233 16.5613 15.0758 16.4901 14.9425 16.3479L8.635 9.62125C7.9775 10.4035 7.41542 11.3146 6.94875 12.3546C6.48208 13.3946 6.24917 14.6097 6.25 15.9999C6.25 18.5777 7.10417 20.7777 8.8125 22.5999C10.5208 24.4221 12.5833 25.3333 15 25.3333C17.4167 25.3333 19.4792 24.4221 21.1875 22.5999C22.8958 20.7777 23.75 18.5777 23.75 15.9999C23.75 13.6737 23.0167 11.6066 21.55 9.79859C20.0833 7.99059 18.1083 6.95681 15.625 6.69725V8.66659C15.625 8.85592 15.565 9.01414 15.445 9.14125C15.325 9.26836 15.1762 9.33236 14.9987 9.33325C14.8212 9.33414 14.6729 9.27014 14.5537 9.14125C14.4346 9.01236 14.375 8.85414 14.375 8.66659V5.99992C14.375 5.81059 14.435 5.65236 14.555 5.52525C14.675 5.39814 14.8233 5.33414 15 5.33325C16.3742 5.33325 17.6692 5.61147 18.885 6.16792C20.1008 6.72436 21.1633 7.48703 22.0725 8.45592C22.9817 9.42481 23.6967 10.5581 24.2175 11.8559C24.7383 13.1537 24.9992 14.535 25 15.9999C25.0008 17.4648 24.74 18.8461 24.2175 20.1439C23.695 21.4417 22.98 22.575 22.0725 23.5439C21.165 24.5128 20.1025 25.2755 18.885 25.8319C17.6675 26.3884 16.3725 26.6666 15 26.6666ZM8.74875 17.0266C8.47542 17.0266 8.24708 16.9279 8.06375 16.7306C7.88042 16.5333 7.78875 16.2888 7.78875 15.9973C7.78875 15.7057 7.88083 15.4626 8.065 15.2679C8.24917 15.0733 8.47833 14.9755 8.7525 14.9746C9.02667 14.9737 9.25458 15.0719 9.43625 15.2693C9.61792 15.4666 9.70958 15.711 9.71125 16.0026C9.71292 16.2941 9.62083 16.5373 9.435 16.7319C9.24917 16.9266 9.02 17.0244 8.7475 17.0253M14.9975 23.6919C14.725 23.6919 14.4971 23.5937 14.3138 23.3973C14.1304 23.2008 14.0387 22.9564 14.0387 22.6639C14.0387 22.3715 14.1308 22.1284 14.315 21.9346C14.4992 21.7408 14.7283 21.643 15.0025 21.6413C15.2767 21.6395 15.5046 21.7377 15.6862 21.9359C15.8679 22.1341 15.9596 22.3786 15.9613 22.6693C15.9629 22.9599 15.8708 23.203 15.685 23.3986C15.4992 23.5941 15.27 23.6919 14.9975 23.6919ZM21.2475 17.0253C20.975 17.0253 20.7471 16.927 20.5638 16.7306C20.3804 16.5341 20.2888 16.2897 20.2888 15.9973C20.2888 15.7048 20.3808 15.4617 20.565 15.2679C20.7492 15.0741 20.9783 14.9764 21.2525 14.9746C21.5267 14.9728 21.7546 15.071 21.9362 15.2693C22.1179 15.4675 22.2096 15.7119 22.2112 16.0026C22.2129 16.2933 22.1208 16.5364 21.935 16.7319C21.7492 16.9275 21.52 17.0253 21.2475 17.0253Z" fill="#D25917"/>
</svg>
