<svg width="29" height="35" viewBox="0 0 29 35" fill="none" xmlns="http://www.w3.org/2000/svg">
<path d="M23.9791 32.0834C24.7527 32.0834 25.4945 31.7761 26.0415 31.2291C26.5885 30.6822 26.8958 29.9403 26.8958 29.1667C26.8958 28.3932 26.5885 27.6513 26.0415 27.1044C25.4945 26.5574 24.7527 26.2501 23.9791 26.2501C23.2056 26.2501 22.4637 26.5574 21.9167 27.1044C21.3697 27.6513 21.0625 28.3932 21.0625 29.1667C21.0625 29.9403 21.3697 30.6822 21.9167 31.2291C22.4637 31.7761 23.2056 32.0834 23.9791 32.0834ZM5.02079 8.75008C5.79434 8.75008 6.53621 8.44279 7.08319 7.89581C7.63017 7.34883 7.93746 6.60696 7.93746 5.83341C7.93746 5.05987 7.63017 4.318 7.08319 3.77102C6.53621 3.22404 5.79434 2.91675 5.02079 2.91675C4.24724 2.91675 3.50538 3.22404 2.9584 3.77102C2.41142 4.318 2.10413 5.05987 2.10413 5.83341C2.10413 6.60696 2.41142 7.34883 2.9584 7.89581C3.50538 8.44279 4.24724 8.75008 5.02079 8.75008ZM5.02079 32.0834C5.79434 32.0834 6.53621 31.7761 7.08319 31.2291C7.63017 30.6822 7.93746 29.9403 7.93746 29.1667C7.93746 28.3932 7.63017 27.6513 7.08319 27.1044C6.53621 26.5574 5.79434 26.2501 5.02079 26.2501C4.24724 26.2501 3.50538 26.5574 2.9584 27.1044C2.41142 27.6513 2.10413 28.3932 2.10413 29.1667C2.10413 29.9403 2.41142 30.6822 2.9584 31.2291C3.50538 31.7761 4.24724 32.0834 5.02079 32.0834Z" stroke="white" stroke-width="4" stroke-linejoin="round"/>
<path d="M5.02075 8.75008V26.2501M14.4999 7.29175H21.0624C21.836 7.29175 22.5778 7.59904 23.1248 8.14602C23.6718 8.693 23.9791 9.43487 23.9791 10.2084V26.2501" stroke="white" stroke-width="4" stroke-linecap="round" stroke-linejoin="round"/>
<path d="M18.875 11.6667L14.5 7.29175L18.875 2.91675" stroke="white" stroke-width="4" stroke-linecap="round" stroke-linejoin="round"/>
</svg>
