<svg width="129" height="27" viewBox="0 0 129 27" fill="none" xmlns="http://www.w3.org/2000/svg">
<path d="M17.872 26H8.8C5.92 26 3.892 25.508 2.716 24.524C1.564 23.516 0.988 21.752 0.988 19.232V0.368H17.872V4.832H5.992V10.844H14.308L13.948 15.308H5.992V18.872C5.992 19.88 6.22 20.576 6.676 20.96C7.132 21.344 7.96 21.536 9.16 21.536H17.872V26ZM40.6049 0.368L32.5409 24.56C32.1089 25.664 31.3409 26.216 30.2369 26.216C29.0849 26.216 28.2929 25.664 27.8609 24.56L19.9049 0.368H25.0889L30.2369 17.072L35.3849 0.368H40.6049ZM60.5868 26H51.5148C48.6348 26 46.6068 25.508 45.4308 24.524C44.2788 23.516 43.7028 21.752 43.7028 19.232V0.368H60.5868V4.832H48.7068V10.844H57.0228L56.6628 15.308H48.7068V18.872C48.7068 19.88 48.9348 20.576 49.3908 20.96C49.8468 21.344 50.6748 21.536 51.8748 21.536H60.5868V26ZM85.4797 0.368V23.408C85.4797 24.2 85.2397 24.884 84.7597 25.46C84.2797 26.012 83.7157 26.288 83.0677 26.288C81.4117 26.288 80.0557 25.328 78.9997 23.408L70.1437 9.548V26H65.1397V0.368H69.9637L80.4757 17.144V0.368H85.4797ZM107.34 4.832H100.464V26H95.4596V4.832H88.6196V0.368H107.34V4.832ZM128.518 18.44C128.518 20.864 127.63 22.772 125.854 24.164C124.078 25.532 121.81 26.216 119.05 26.216C116.866 26.216 114.754 25.616 112.714 24.416C111.706 23.792 110.878 22.916 110.23 21.788C109.582 20.636 109.258 19.328 109.258 17.864L113.794 17.648C113.794 18.944 114.346 19.952 115.45 20.672C116.554 21.392 117.778 21.752 119.122 21.752C122.122 21.752 123.622 20.696 123.622 18.584C123.622 16.856 122.602 15.836 120.562 15.524L116.386 15.092C114.298 14.78 112.642 14.036 111.418 12.86C110.194 11.684 109.582 9.992 109.582 7.784C109.582 5.576 110.458 3.752 112.21 2.312C113.962 0.871998 116.17 0.151998 118.834 0.151998C121.522 0.151998 123.682 0.835999 125.314 2.204C126.946 3.548 127.762 5.288 127.762 7.424L123.298 7.64C122.89 5.552 121.486 4.508 119.086 4.508C117.622 4.508 116.47 4.82 115.63 5.444C114.814 6.068 114.406 6.812 114.406 7.676C114.406 8.516 114.706 9.188 115.306 9.692C115.906 10.172 116.65 10.472 117.538 10.592L121.642 11.024C126.226 11.648 128.518 14.12 128.518 18.44Z" fill="#C6C6C6"/>
</svg>
